<mxfile host="app.diagrams.net" modified="2023-03-03T06:30:26.250Z" agent="5.0 (Windows NT 10.0; Win64; x64) AppleWebKit/537.36 (KHTML, like Gecko) Chrome/110.0.0.0 Safari/537.36" etag="9KW8akDW8ruhpPW6T7ur" version="20.8.23" type="github">
  <diagram id="C5RBs43oDa-KdzZeNtuy" name="Page-1">
    <mxGraphModel dx="1059" dy="627" grid="1" gridSize="10" guides="1" tooltips="1" connect="1" arrows="1" fold="1" page="1" pageScale="1" pageWidth="827" pageHeight="1169" math="0" shadow="0">
      <root>
        <mxCell id="WIyWlLk6GJQsqaUBKTNV-0" />
        <mxCell id="WIyWlLk6GJQsqaUBKTNV-1" parent="WIyWlLk6GJQsqaUBKTNV-0" />
        <mxCell id="WIyWlLk6GJQsqaUBKTNV-2" value="" style="rounded=0;html=1;jettySize=auto;orthogonalLoop=1;fontSize=11;endArrow=block;endFill=0;endSize=8;strokeWidth=1;shadow=0;labelBackgroundColor=none;edgeStyle=orthogonalEdgeStyle;" parent="WIyWlLk6GJQsqaUBKTNV-1" source="WIyWlLk6GJQsqaUBKTNV-3" edge="1">
          <mxGeometry relative="1" as="geometry">
            <mxPoint x="220" y="170" as="targetPoint" />
          </mxGeometry>
        </mxCell>
        <mxCell id="WIyWlLk6GJQsqaUBKTNV-3" value="Get all the feeds from Spaces-1" style="rounded=1;whiteSpace=wrap;html=1;fontSize=12;glass=0;strokeWidth=1;shadow=0;" parent="WIyWlLk6GJQsqaUBKTNV-1" vertex="1">
          <mxGeometry x="160" y="80" width="120" height="40" as="geometry" />
        </mxCell>
        <mxCell id="WIyWlLk6GJQsqaUBKTNV-4" value="Yes" style="rounded=0;html=1;jettySize=auto;orthogonalLoop=1;fontSize=11;endArrow=block;endFill=0;endSize=8;strokeWidth=1;shadow=0;labelBackgroundColor=none;edgeStyle=orthogonalEdgeStyle;" parent="WIyWlLk6GJQsqaUBKTNV-1" edge="1">
          <mxGeometry y="20" relative="1" as="geometry">
            <mxPoint as="offset" />
            <mxPoint x="220" y="250" as="sourcePoint" />
            <mxPoint x="220" y="290" as="targetPoint" />
          </mxGeometry>
        </mxCell>
        <mxCell id="WIyWlLk6GJQsqaUBKTNV-8" value="No" style="rounded=0;html=1;jettySize=auto;orthogonalLoop=1;fontSize=11;endArrow=block;endFill=0;endSize=8;strokeWidth=1;shadow=0;labelBackgroundColor=none;edgeStyle=orthogonalEdgeStyle;" parent="WIyWlLk6GJQsqaUBKTNV-1" edge="1">
          <mxGeometry x="0.3333" y="20" relative="1" as="geometry">
            <mxPoint as="offset" />
            <mxPoint x="220" y="370" as="sourcePoint" />
            <mxPoint x="220" y="430" as="targetPoint" />
          </mxGeometry>
        </mxCell>
        <mxCell id="idBxaSIMenMMT8aOIOW5-0" value="Get each feed ID under every feeds in Spaces-1. The feed IDs are always stored under library variable sets" style="rounded=0;whiteSpace=wrap;html=1;" vertex="1" parent="WIyWlLk6GJQsqaUBKTNV-1">
          <mxGeometry x="120" y="170" width="160" height="90" as="geometry" />
        </mxCell>
        <mxCell id="idBxaSIMenMMT8aOIOW5-1" value="Create a new external feed in Spaces-24---&amp;gt;response will contain a new feed ID" style="rounded=0;whiteSpace=wrap;html=1;" vertex="1" parent="WIyWlLk6GJQsqaUBKTNV-1">
          <mxGeometry x="120" y="290" width="160" height="90" as="geometry" />
        </mxCell>
        <mxCell id="idBxaSIMenMMT8aOIOW5-2" value="Get all the library variable sets from Spaces-24&amp;nbsp;" style="rounded=0;whiteSpace=wrap;html=1;" vertex="1" parent="WIyWlLk6GJQsqaUBKTNV-1">
          <mxGeometry x="130" y="430" width="140" height="60" as="geometry" />
        </mxCell>
        <mxCell id="idBxaSIMenMMT8aOIOW5-5" value="" style="edgeStyle=none;orthogonalLoop=1;jettySize=auto;html=1;rounded=0;" edge="1" parent="WIyWlLk6GJQsqaUBKTNV-1">
          <mxGeometry width="100" relative="1" as="geometry">
            <mxPoint x="220" y="490" as="sourcePoint" />
            <mxPoint x="220" y="540" as="targetPoint" />
            <Array as="points" />
          </mxGeometry>
        </mxCell>
        <mxCell id="idBxaSIMenMMT8aOIOW5-6" value="From the response of LVS, filter out those where offering name ends with &amp;lt;external feeds&amp;gt;" style="rounded=0;whiteSpace=wrap;html=1;" vertex="1" parent="WIyWlLk6GJQsqaUBKTNV-1">
          <mxGeometry x="130" y="540" width="140" height="90" as="geometry" />
        </mxCell>
        <mxCell id="idBxaSIMenMMT8aOIOW5-7" value="" style="edgeStyle=none;orthogonalLoop=1;jettySize=auto;html=1;rounded=0;" edge="1" parent="WIyWlLk6GJQsqaUBKTNV-1">
          <mxGeometry width="100" relative="1" as="geometry">
            <mxPoint x="219.57" y="630" as="sourcePoint" />
            <mxPoint x="219.57" y="690" as="targetPoint" />
            <Array as="points" />
          </mxGeometry>
        </mxCell>
        <mxCell id="idBxaSIMenMMT8aOIOW5-8" value="Update/replace all the feed IDs within the library variable set with the new feed ID" style="whiteSpace=wrap;html=1;" vertex="1" parent="WIyWlLk6GJQsqaUBKTNV-1">
          <mxGeometry x="130" y="690" width="140" height="70" as="geometry" />
        </mxCell>
        <mxCell id="idBxaSIMenMMT8aOIOW5-20" value="" style="endArrow=classic;html=1;rounded=0;" edge="1" parent="WIyWlLk6GJQsqaUBKTNV-1" source="idBxaSIMenMMT8aOIOW5-1">
          <mxGeometry width="50" height="50" relative="1" as="geometry">
            <mxPoint x="280" y="385" as="sourcePoint" />
            <mxPoint x="350.71067811865476" y="335" as="targetPoint" />
          </mxGeometry>
        </mxCell>
        <mxCell id="idBxaSIMenMMT8aOIOW5-21" value="Response: Two new feed IDs are getting created under FeedType: &quot;NuGet&quot;( FeedType is a reference variable).NuGet Feed ID: &lt;b&gt;Feeds-6461&lt;/b&gt; and NuGet Feed ID: &lt;b&gt;Feeds-6463&lt;br&gt;&lt;/b&gt;&lt;img alt=&quot;&quot; src=&quot;data:image/png;base64,iVBORw0KGgoAAAANSUhEUgAAAf0AAAGrCAYAAADKG05iAAAgAElEQVR4nOzde1xUdf748ReNcvnKOkoxIHwlyRzkKyQpbG6CZlIk2gVMN7y0atZXbTfTLkrt19TfJtp6qd3UdnPVDZAywVYFQyEvYGGgojOFoAaOgTAoMi4uFxnP74+ZgWEY5C4Yn+fjwePBnPOZz3l/zjkz73M+53PO2EiSJCEIgiDcUTdu3ODWrVtdHYbQBvfccw99+vRp03u7ervf02VLFgRB6MEcHBy45x7xFXy3ueeee3BwcGjz+7t6u9uIM31BEISuU1NTw82bN5EkCfF13D3Z2NhgY2ND7969sbW17ZA6u2q7i6QvCIIgCD2E6FsSBEEQhB5CJH1BEARB6CFE0hcEQRCEHkIkfUEQBEHoIUTSFwRBEIQeQiR9QRAEQeghRNIXBEEQhB5CJH1BEARB6CFE0hcEQRCEHkIkfUEQBEHoIUTSFwRBEIQeQiR9QRAEQeghRNIXBEEQhB5CJH1BEARB6CF65ebm0qdPH371q191dSzNKi4uFrEKgiAIQhv1unXrFjY2NtxzT/c/6RexCoIgCELb9QKwsbFBJpN1dSwtImIVBEEQhLbpJUnSXZOcRKyCIAiC0HZ1Z/p3Sze0iFUQBEEQ2qaXJEmAIUF1dyJWQRAEQWg7kfQ7yd0UqyAIgtAz9DL9czclJxFrJ8reyBfh4PvTq/zP5X/xr9Ffozi2md8MMC9Uyne/fwRNUlOVvGF4f+dH20jJnvkcft3HuPxTpD4wmSvNvSl0A499/CwudyLAFjHETcJPjPczrGvtk8d59hnnOxZByYE9eB9zIWfFI7iovsFpNSTHPk6AZZl/VoOPJ/mR/sjr5uSwbroalk7hDd+2Lb8qP4uNOy4S/eMtNIDyv3/F3N+OYO4IRbvaBVp2vXeEVwb5UDbbu9lye0eP5Z9PKsjc9iUhNPceQej+6q7p3y3JScTa2SSkWsDGBhsboPZW/f91bOBWLdLr/yJi4YiuCbMJNtxCqpUMMTOC4Px8s7mlfDt/BBeHdr+4LUm1tYBx/7ll9v8dYiOZNr0NNkjU6jGuU4syeglOF3Hgig1TzY5JJL1kjLkNCz93iEl/vIrf/ACOR96PPVWUZBxh2geHOfv7ENYF9WtPy5BuSRh2kdsFZyinl4zrXZIwfCzuts+zIDQkzvQ72d0UKwCSnls1GL/gb3GrphbJype3VFvDLb3U/dp3q5ZbNfpGCcqk28bdgIRUUwOSYb1LtTXcunWH9yXpFtV608GTRHUtSJbrVLpF9QNOrOQKsd/+zG+fG1g3S197i7Yl/Wvsjivm38HDWTVuEPYAOOAa+ATrf9rN+oJidGP60560f0t/i+oWrM9b+lt1BwfSrVtUcxd+ngXBghhaLghCOzgy4UlH9n+VR7a+A6q7msfu0xD+yFBjwjeR4ffi83z2one7Ej76Csr/3a4IBeGuJpK+cEeUHt/K3pmBxCgUxPgEsnNFPOd11krqUG9Zys4xPoayY6aRlJCHtaKlxzfx1QT/BuUq2hGjXr2JOMUiMspaMi+LZIWC+IQ8zicsr493wiJSjutonP9a3q7Wqspax/gBNtgMeZOk8g6osJVcH72fyMoS9qubzvrFSQn0Dj9AhrXpS7+l2DThZx1x2DNoQMufb1F14ThRy75gSPgOeofvIGhZKoe0NWYlfiDKOK/3lOO8dhn4+rThtenPPAZB+AXr1XwRoUcZuYgZWuP/bpOZrJ3c7ioLE+ZzaBl4fJ5ISLQcWbUW1Sevk/GChqpdi/DpYyqpIf3VUAqIJOCr1Xg5QWVRGkeXhJOUv52n3/DH0ViyMnsDKU8fxHH7Dp57UoljLyhTx3JsmQZ4qE1xynyCcPZZjiZ5EaMiPMzmVKP61yb0sz5E6dTwPTUxOyhauYjnji7HtlZH7p4oTj4dQcqB3YT42bW6XQb+hGhNG0FB4BYtd5praDg3Q40vhj/JzYTbFLb3YtyjP/DiYTWLhg+3OENvneLC1h22VZ0+wBMrrjFuURCq99yw5xrZycf4wx/2seDDZ4kYIAOGEZkwjEgASohbmsqLDwzn5ivDblOzCxGrpxFhfDXqlWncbFOLBKF7EWf6QtutCTWctVr8xSeYJanqNE4vS0O+8UPG+MixBWR2CvwWrsajXxSq7aq6s+LK9FgKjjyP9wfT8TImVwe3IEJWRiJbs4QMtalSLSc+jkK/MJLgUEPCB3DymY5vWHs6f31RvhxMzaf7yDWfXP09RXHg9EwQFjkf24g5de2ilxyv8BUo52ZRuiMNU6dAy9vVNvb+b5B6WUI6t5bQdvV9tzkCxj3pguuRi+y/oz0Nl4jbdoX+EY+wMsgNexkg649faDArH63ixb9n0QUdH4LQrYmkL7TdkiRmaLWN/iaH199Wpc9Op0w7Cde6s14TD5z8QZ+ZV9eteuHYBggNxLOPRVFPL+So0OVojBM03NgDDt5eOFgUte/Tt11N8giZjqN6ExfSq+umlaUmUKZYwOBAyzYAMsvzWjvc/SfCdhVFxiktb9ddzHswCwZUsO3wpY6tV/stU5vqhr98if0aGeOGD7J4kz3eQ+zhdBlnO2KcgSD8gojufaFTlRbmAYnkDtna8Oy5joZrgDtays8Be6aRtL2JyjRawAPKSqjsnHDBKZhBC0Gd+j2VgUE4oEEdHYvty1l4tanCVrTrrjaIcU9k8crhAgqes+wPaTlXVwcw37qKR9mZ8ChguP4/8KhZYW0Fu9Gze+kO3m6ivvyrMKq9t/YLwi+ISPpCp3J2VwJK/LSR+Ny2pIJ+Q4A3kohY4s9th3E5ueAA7Rq01zQ7fJ9dQM7jCZz+QxCjivZRmDodz41tTcqtaNddbtBjA5n9WQG7c9qe9BkgJ4xrFGiB5pK1wpEwKgjbGE7EgGbKCoIAiO59oZPJhgYgV6RQ3ILr1m7+cyD5e843W3II8giozMltdMZfdeN62wI1I/OZhPv4WDTJGnKPxKNfGM7wpvKYvspiQjWFWYkwyxc345SWt+su1284EUF61h8w9N6Ys+/TC6ih0mJ1FV+xGB43YCATPCAhM8+ihgpOqSzePMCFcfdWcSjHcmmCIDRFJH2hc8mDGbFSSfFbS0lX6zDdSFVxKY3kudNIOlJ/05rT+AUM8t7EyXfiyTWNgqutRpO+gfiIKLLrbpeTM3x2JLKPokhJyqOi1jC1TB2LandHDN3ywGfmdGo+W8TpzSU4PxXUaOyASU3cVo6a2lWrIzfhPfK2+OM8rX7QX8vb1TZdfctePXt+82h/OHKNDRZz+g13Y37v62yIy6FcD1BDeV4a6xMtL7oPJGJqX4r3nmJZWhFVekB/jeykbzl03dai7GBm//4+cv6WSlSmsSx6qsrziFuzixe/KsDykAxs6efYaGKHOLVhBDY2Noz486nOWYAgdACR9IVO5x6+mZDlSq6tmchOhYIYhQ97FyZA+HLGjJWblfQgcOMxfB/I5PRzxvvZ/cZz7EtwX7kYP7OzbQe/RQTvnYT+r9P4ys1w33tGXgDeMzrm2rjT+HCcLqVRo1jAoJFNl7OdMQ23vA18NcaHGLchZH5ajfPeOIIbDFxsebvudvb+g1lsbSxlP38+WDWIoafP4DtlB71/u5sXE2VEPNf4Bj/7Ryeg+uN9FG87zK+m7GDgS6nssPdmwejGX1f2w5/k4KqBsDfNUG/4F/guVvOdhzd/eXqQldsH+zNuqhthhzv6Pv1i8k+dAkJ5NezhdtUkCJ3JRqVSSc7Ozri4dJ+fG2mKWq1GxCrcGRqOTvGnODyLqRHWDiSySFaEUvGJusHdCkJP9R3v2zzKH2fHc21rePueGigInUic6QuCFXr1PgqPTMcj5G4fVS/cEQX5nMSVd2eGioQvdGsi6QuCFeebG8AnCGaqzp0kwe9NJo9rz/MIBaHziVv2BKGOocu+FGB8JD4bmx7AJwjm7J9YiyTG7wl3AZH0BaGO+TPvO7KsIAhC9yC69wVBEAShhxBJXxAEQRB6CJH0BUEQBKGHEElfEARBEHoIkfQFQRAEoYcQSV8QBEEQegiR9AVBEAShhxBJXxAEQRB6CJH0BUEQBKGHEElfaOjEBmIUG1ADFMUTr5hNepFlIS3pcxWGn4g1/fkEsnNFPOd1dz7k28siWWER67qsrg7K4MQGYqyuXzD8yp8h3r1Hqm9bjXqdgpi58S36adjWlO1qnRFrccLs+jrN9/U74gfWREXwX9b+Nh2g5I7FIfRk4jG8QtstSWLGG/4A6Ku1ZK+dRcYLGqp2LcKnTxfHVsf8cbla0uf6UNCl8bRQUSalR/yRjcxCl/49lWPF7wDc9apuUM4Qts1ayW8HdHUwQk8lzvSFDiGzUzDy3U/w6BeFarsKfVcHdJcrzthH5djp+L4+B+KyuNDVAQntd6387jjgFH7RRNIXOpAHg8Mnoo9P43xXh3JX03EpIxECH8LHNwAH7T6Km+yDrqb6akvrbU3ZrnY3xdoafej3X10dg9CTiaQvdCj3Bx4CdSalFtepi9M38dUE/yav/+uPRxEzJbbuTKh4z3xiFD4kZ5tKZJGkmE36JeNL0/XYG3mkr5hmqPeRUL7aoqK9wwp0Z+NJmhloHAPgT9zCTWRb+UG9Gm0ah96eRpyPcazAmGkkJeRZXX7FObM6Hwnlq41ZlNY2EUD1GYq3g9xPCW4BOI9VUZquMitgPqZiIDlbgD3zSWkwdsF0rbo1ZeuVHt/KXlO8VsdrGMZKJB/P4+hcf2J8JpN8opoK9VbiH1EQ88hsDqnrxyIUJ8w2LKcsi5SFoQ3rvdGWdtWtLM4nbeCrcNP28iEufBHJSda3Q+sUkzDnAWxsBjB+c067a+NqIRko6Cdvf1WC0Fbimr7Q0MhFzDAlOLfJTNZObkMlmdzQAm6GV7lbJpMZ74/3P47h52aHrFZHbtzSBtf/ZW5KHI5oqDDWcC0/DZmPCxXnNODnAUUXqUSJx0Dz5egoPXUd5dIdBL4HlfnxJD09nuQ+WUyN8GhT88tSl5K0UIfH54kER8uxpZrC1PUcfXw+Ffs3E2ha/o00Up6eT+Xv4whZtQOnXlCZn0jyS4Ek38hi8kwPZKZKixJJDnsP/e+3E7LFH2c7qCxK4diyg4BLoxgqM1LRMQcvPzvAA5fxvmhSz1Awz5dBACgI3KIl0FhevU5Bds5mgrdMxrVRba0pa1CYMJ9Dy8Dj80RCouXIqrWoPnnd6niNCo0947ZkMfjL2Rz6IpaClyfz3PHJZK8YTU7891T6mI9FOEhunC+jPkgi+COoLErj6JL5ZLxtj+PGibi2IdbihHlkfHw/Xv9MZfhAO2yBiktpHHtnGilXd/D0TCW2ZuVdw7cxI9z4wnxfvxNqMQzWKzxGZPzf+OjGTbinH7MG/y9R4X7IxSmYcAeI3UzoBFrqLuqXJZLzTjmuf45kpJudIRH2kuM1czUPKqNQRRvPYAfejwNnKC8C0HD1VBCeb06i8seLVAJoNVSO9cDRYkl9A/xxtzP87+A5mZFLgqhJSGvjtVMVJ9/fiuMHqxnjIzcmCzvcx0cyYn4eBX9NocxUtE8QIQeOETLTF6depuVPxG92EDV70rhkVqs6bgmVvpGMmmdI+AAObsGMnvlrq1FcyNoFzwQw0HhG+GDAJDiSws9WR/l3sOo0Ti9LQ77xw7p1ILNT4LdwtdXxGo4PeGCLsYdnewkMkSNDjrtvAFzSWpxtB+H1anD99nILInjZYmy/XI+6TUPodRQcSYSJkwgwJnwAx4FBhERn8ZxFwm89V8K3/oQkXSZ1vne7ajJxsc3jcJ6CpfM+4z+RcVx+Ngy7S2vw23qsA3omBKF5IukLnUCB6TS3UpVJBcG4+liWkePoAfqsPOMtWQr6hhp7CKovci1LiXy0L45qDSVAWUkJ+HhYnBfLsbNrWKt9n75wRFvXY9Aq+WcoU0/kPt/G/a/yAR6wXYV53pXJ5Y0OQhovX0t5jhb8vbDse3BwtNbPq6I4UYvt2IC6s1uZjz9yEinJ6PzTUn12OmXaSbj6WaxYPHDyB31m3m1uobNvpvbG82VDHkKOCl1eW9omxy1wImxbT3JqHsU6neEA0VR3G2rsVH6zyX8jiiXjhiA3Ho3Ihz5J1OjRULqV7We7NjyhZxDd+0InCKCPwvCf7upF4KGmi+7RcAVwxQUHTy1XSnQg11AZ6ouLXEkpKZTqAO05bB+4v3NvWyvTUgO3yRbGngjjZYvS41vJ+HQXuj2W9/2bt7eEKhXQ0hNFdRqlatC/4U/MGxbzMs5QFh6MUwuraovSwjwgkdwhW8m1WkLDNcC9E2NoDY8p2wgeEMvJLyM5tCIX/VktDA3C8dk5+MybyIPd5tbRptkPVDKKYxRo/wNDxSg/oXOJpC90qMKfzoBPAM7GxCi/936gquk3hHrQHwA77n0giAtaHWWowDcIJzxw8t9HYf5qHIrScBjV+Pp3h3JSGLqDm7zfUEk/Y7v06k2kPB2PY/Q2nvvEA0fjJ6k4YTYp88zf44K9b8tDKDiVin7sBgK/nG68fm9QlryUpJnp5P+/YJwsT8I7kLO7ElDip42kUedMN+UaOJ3QwOnGV9XoLn1PxtuTyXh/B06rOvcgqSPZ2/bu6hCEHkB07wsdSMOFhERkk4N40DjFwTcAR1Ks3HKmo0IDslHKurNGFw9farRaSs7uw1Fp6Azv/0AAFeeyKD/ni8O9nZjtADwfwsknkSuqxldXdZc1MCvAdJJPaV4meibhGVKf8AH0jQ4YFDg/7AtZuWgs5lRWWC5Hy89H0iDwoQYJH8DJNwAHNlGUcfun87WXbGgAcoW17dURGh/86c+dQYcvcqWiTTVWaC0v5dghHxjE8CkTISOP0jbV2kl02fzr+/JGk6su5ZHBEPzuF0lf6Hwi6QsdQl+t5cT789CUR+I7y7e+h9xpIt6r+lH8VhQniqoNJ9G1OnKjl3I+LxLfmfWnwQ73KpDlHCT/VBBOnoZp7kMeovLHg1zPCEA+kE7my4h351Dx9lKOqnWGrn6qKUyN4uRmJYP+UH/W6Po/QcjYR36y1ngduZpSdQqlVi5leIUtxkEVRcYnWZQac3ZlUQrHor9vWLAojZI9xlv1LLkF4DwWdFmNH3zUu0/LuxKaLSsPZsRKJcVvLSW9bh0YRsQnz51G0pH2DDdLI3djCoV16yCNlJXrqZmyGB8r3QrNxlqWxtHf+bD3nVhyLlWbxZrCyU8TkT0b1GgcRet05C17NynISOD1Q++x4rtCqozB6s4eIPLYMQYN+S3PWn1K3ynWPWyDjc0I1mVbmy8IrSO694W2WxNKzBrj/woltlMWMerzyY2uo3rNjUc+dBMZL40m54Sm6bIDlTjsmUaZz3IGm078PH1x3Gic1qb7m7NIVoQ2POPbYxb3Mw1vCXMav5qnd8Vz7P2J7EzOAzyQRczB+5vN+JmfjA6dQ/DeKo4tDyV+pgY8g3FauZqQKUqq0sPJVpyhPHsbgW6A20RCdldxdOXrJC/LA09/HF9cyeiXn6B4z5m6Ksuy06lkDh6NBtFB3a17O7/n/Bv+eJmv32ciyTvwOimK+WZTI/HTLmrURd+Ssu7hmwlx30rGGtM6UCALfAKnucsZM7Y9N5k/gVdEP3LeDuVQXJZxP1jBqDcnWr0lr9lYnYII3asme/t6fnxlAydOGPtSRk7H+Q/phIYqu9Gji3szKGQlGffuZHXGnxhxuJwCejPUXsnvgj5ig38TPR3F+ZzMBia8SrjfHQ1Y+IWyUalUkrOzMy4unXy9tAOo1WpErIJw9zGMdXjI6oGIcBsZ72Pzmz/yUsI1toT16+pohF8A0b0vCILQTeWfOwmu7zJtgkj4QscQ3fuCIAjdUhX5qgQeXnySx5t7BIIgtJBI+oIgCN2SPY9/IHGyq8MQflFE0hcEodM1eOa9IAhdRlzTFwRBEIQeQiR9QRAEQeghRNIXBEEQhB5CJH1BEARB6CFE0hcEQRCEHkIkfUEQBEHoIUTSFwRBEIQeQiR9QRAEQeghRNIXBEEQhB5CPJFPaOjEBmImYPg1tKJ44v324WL6idg6WtLn+lCwx2yS8edyR7w+mQfb8+urHc7KT+suSWLGG/5dFVC9ExuImXCGQWbr1/BrdIkWBRXIQp5n4LJIAodY+9ndllOvU5Cd0/DnhO8E9ToF2WssJpp+YvhVf5w7PQLjPuvdidu+WsWhV2dTuEdTP62Jfa1SvZWkl5ZSmV8/zXm/lpCRplc6zidtRf3XWCrqfjJ4IvLJ0xk+JRiPbvUZa6+O2DaGOkpC1UwOVxj2N+7w5/xWOYdjIwn9uRwYwrZZK/ntAOtFS7JiWHHkANtrbsI9/8Vv75/BkqfHMbSP9fIdSSR9oe3MvtD01Vqy184i4wUNVbsW4XMHdt6W8SdEqzX+b/xy6dJ4WiLS4idodZyPXkpG2Ov0OrCZUW63eWu31rBdNdoUUn4XSkptKs8t9MWhS2Nrv7LDsRQSSbC2uQMqHerPlsISNTPCFVbmV6NeF0F2ShDefz+G70A7bIGyc4lkLHmdo0kLCNi5AC/x7d193NKS/Nl7hF37NYceg3GH85ssWnJoGaO+h/ee/QubhvaDKi3JX77HiL8X8t3CGQzv5P530b0vdAiZnYKR736CR78oVNtV6Ls6oF8UOQ/OfAknbTyFxzTNF79L2CqCGT5nIvr34/mxuqujab+aGyUtLFlNddltZmtTyF2ThXzpYkYaEz6A05CJhEYnEPCRSPjdyi0t/9rypiHhz5nNI7c7eq36nk++L+CFsUuZNdT4c8n2CkKmLybqViJ/O1re6eGKpC90IA8Gh09EH5/G+a4O5RdIBlRqtM2Wa1o11Vc7KpqOIZMBXKSym8XVpYryqARsHa1cyumjxGvgHY9IuI2qi5l89Z9xhoTf3GWXsz+w/dYwHvP+r4bT7xnCY/f3ZvvZ72npoWNbiaQvdCj3Bx4CdSalRQ2nF6dv4qsJ/sQoFMT4BLJzRTzndfXz9cejiJkSW9f1XrxnPjEKH5KzTSWySFLMJv2S8eWJDcQoNqC+kUf6immGeh8J5astKsyqbRPd2XiSZgYa6lT4E7dwE9lWcm2NNo1Db08jzkdhKDtmGkkJeVaXX3HOrM5HQvlqYxalta2LSw84eDTsDq44l0jywtDbxKolfa4xPsVAcrYAe+aTojBNUxjWo6n4iQ1m0xXEzI2n2LiOTe1MPgGgI2OhgriN1np1bjfPok16QPEQ/cwuWeh1eWSsW0TcIwqz9ZVGcRPrS69TcdR8O0xYRHJSHhXNLBtAfymFvRN82PlRVsPtVqsle6NZDFa3rfm6VRjGYliu23VZhqJF8cTXTTeMh6mc59NgXRvWK+DpiyOg+1HT4h6z0uNb2Wvav6x8vsxpUjc0/Cy+vRW1lZ4Hva7hdo+ZsIiUdC01FuXU6wztrDgXT1KEf13ZQ9k6q/uGum69+hA3cznp55o6u9Wh3rKUeFOsCn/i5i7lkJUYWq3qFOseH4CNzQO8ub99Z9f2nhPZ9loLEj5QUppPCQr6WSnrKh8E1wo7//KjSqWSiouLpbuBiLW7KJHSXnKWotdmNp6VtV6Kdh4mfX2qftLZT8Ol6KdWSVmFVVKtJEnSzXLp7GfzpOin1kuqCmMhzS5pl/N6SWV8+eOHw6Qd4x6Xdu28aJhQuEva5byqbr5hOe9J36RlSj9XGSb956dd0q5hztIXOy62Pm6jqylLpOhh86QjqnKpWpIkSaqSfk5ZJe0YNk9K05gVrDgqJf56mLTrszPS1Zum5e+Tdo9zlr747KKhnSaF+6Rdw4ZJX2zOlLSmWAsPSgdfmiBFO8+S0grri16OnyVFm60Hg3Lp3GfzpOhhS6Tvr9ZP/XfWemmH8wQpMaVE+o9pvcYvaRyrGdVaZyn6pV3S5SbXgEUsL62XDq7dKJ0ybTvzdfX1Eil62CrpVJXFjJ9ipC+cH5cOmjVCtda5UbuqSw5KiU8Nk3bFm6+vi9KRF5ylHX86WLddq69mSgdfcJailx+V/m0ZpJXtcFUVI+0aNkza/XW5WcHG2/7feTHG7XLGot4z0jdhwyxiOCMdWTBM2rE2s3EMDdZXS9atIZZd8SVNlvg5fp4U7TxS2vXxPunHvBLpakWTRQ1lzfbZ2qoS6dSHEQ0/X0b5O2Y1+CzWVpVIWX+aIEU/tVE6a17w6kFpj+X+XWhtexm37fJ/SKcyjPuhVCXl75wnRTtHSEd+Mq+0SvrxwwlS9FNLpO/yqgyfr5vl0tkd70lfjLP8XFZJqrWPS9Ev/UM6e9W071VJWtUuac9TE6TEw+bbtg0qT0prx7lK4Cm9kXStfXVZOrVVclj1f9LnRY1nZcS9IDlsTJaKJUmS8r6QHlv1guS97bhULklS8YH/kxxW/Z/0lbZjw7EkzvSFTqCl7hC/LJGcd8px/XMkI93skAH0kuM1czUPKqNQRasM5QbejwNnKC8C0HD1VBCeb06i8seLVAJoNVSO9cDRYkl9A/xxN/aCOnhOZuSSIGoS0tp4tKzi5PtbcfxgNWN85MZrqXa4j49kxPw8Cv6aQt0JUZ8gQg4cI2SmL069TMufiN/sIGr2pHHJrFZ13BIqfSMZNc8fZ1OsbsGMnvnrJuKIItv8bNFnIplZvvh8s5oAJ1MZDSfXRiFb9wkh4xWGQXC95HiFr8A7Io2CtYnc7rJxi+3R4Dh7AX6mbWfG6bGJOLGBgtSGp5SajERqxs9B6WPxBot27fSZRuWk7Yx6xsOsbg/GbDlH6LvBddvV1smf0fMWwMZUci2u/eduX07ZqDWMM9sOTj7TGb07jjHjmz710h3fQFLYBmQrk3hunm+D/aosaSuF5QsY0SAGX8b8vzU4rFlChtpqlR3KPXwzTx9fjfOVFFRLwknyVBDzyDT2bslqeCdKdRqnl6Uh3/hh3T4rs1Pgt3B14/E1ZYlkL9Q0+CzK7BSM/P0njPrHSzxoVm1uXBQ6i/Xq4BZMyM3apVQAACAASURBVJ8XUDNvEycb9SIMwesR436IHYOmROIxNoXidLMxKEX7+PF9DU7vrmDUEONYhV5yvCLm4HqvZX15FO9U4RA6CS8n075nh7PPZEL3JxE6tp23L9g/zBvfXEaSfmLthH7tq6uDVbWyB7C1RNIXOoEC07d4pSqTCoJxbZQA5Dh6gD4rj2Lje/qGZnJDC1Rf5FqWEvloXxzVGkqAspIS8PHAxaIOO4vLnvZ9+sIRbYu6dhvJP0OZeiL3+Tb+QpEP8IDtKsyvWsjk8kYHIY2Xr6U8Rwv+XnhYlHVwbOqLKxI/rZYZ2nN4zVLAqEWM+2gBfuY9+5cyKU31xelhD4tkbIerdwDEncHiCkvbhAYy0KmJeXZBDJ7vS0X0Puq/2lXkfZqC48xJjdpb3y7jX9E5/of1HHp6A+obZsX6yLFcM4Z1ZXntX0PJYRUybw8sQ3QdUp+sLBUmLyXp6ShYksDT4R51A+UMqsnPjIWQXzdIggA4ueCACl1ee8ZVtJzcM5gx721gakI6M7SXCPnHZIgPJfnt+oNPfXY6ZdpJuPpZXv/3wMkf9Jmmz5fpsxiA3HJMgNyDBxsc1BnWq0Ogb6P1KnNywZatlFkO2nF0sLj7wp575FCjNVtXlzVUEkDfByxjNZRtSIlruAeVn67n6AkNZbrqui59y4PPu9aQqRyKjOPHWb9usL/bd/IgTTEGVOgEAfQxJijd1YvAQ00X3aPhCuCKCw6eWq6U6ECuoTLUFxe5klJSKNUB2nPYPnB/597WVWa8Vtjkt4qxJ8J4/bn0+FYyPt2Fbk+WRTnz9pZQpQK82xKQnBEvLuD845s4fWISriPNviy1GipRUfm4gpgm3m0ea5v1uv2XrFfoHE6vSKAgfzoenlCZvo9i7SJ8bnOWXV+3HO+58zm/YjK5ydPxMd6+VnEukWMfb6UsNQ19g/w60aICLZVHwDbChRbbNotDA6fjsXIimjVRfPfYZgIbJEEdlZcA76bbXZmvAazdateZDGe5wUtVxE+JJ+/NYEYpoLQwD0gkd8hWcq2+T8M1wJ36z6JDs5vGsF6JsG+yRMVFLYxs3TooLWnNnSd2+CxJxd43lpzNi0hWpaHPx/isglcZNfdOPNuh4w26dwjkG67bW99rPXHt5IaJpC90qMKfzoBPAM7GZCO/936gquk3hHrQHwA77n0giAtaHWWowDcIJzxw8t9HYf5qHIrScBjVii/3tnBSGM76mhw9pawbcKZXbyLl6Xgco7fx3CceOBo/SYaH65i/xwV737aHJPOZzoOzNpG7dhcFcdMZZJqh8MCBibic2GaRtO4wz0l4RCwiP0mF/lUP1Hs2IJufim9LnyFk54AtoDMl0rIUUsJmo38zleAPfOsuh5geZNSQAoexUKYtocVJeOBL+H2+CB+5hnRVKAWvbODerxbhXRevHIeBQK1hN7CW+C0HU95Jhh6PPGqMPSPO7kpAiZ82kkadaRYMn8USKnXQqCulAcN6rdA3/bl1cG/9OnB28QBaM2hOzoOhC3gwdIHhZW01xWf3kfFaKCmkEzFX2eoYupqLsycuaCm3sg2KdQXQP7D+M95JRPe+0IE0XEhIRDY5qK5r1ME3AEdSKG50HVRHhQZko5S4G6e4ePhSo9VScnYfjkpD53D/BwKoOJdF+TlfHO5t39PomuX5EE4+iVxRNR72rLusgVkBdSfOpXmZ6JmEZ0h9wgfjaPQGFDg/7AtZuVie51RWtOQ+Azkj5kdimxqF6ojZBe2BvjiNtB7rnSVn+JRF6DfvQ3UpncLtwbiH+ra8C7a6khrA0WeI4XW+igrtRFyeNEv4gL7WWgLywOUxX/Q5mkbjF/TnVORYWzXBQfjIDe8N/GA7zkSR/XGW2eUYOzwDpkPy941vOy0roRJf5N6NL1x0JL1OxdG4LKuXqMpKNIAHDsZ+d9nQAOQKa5+vxgyfxUx0lyzn6Mg9oTEbEW9Yr5XpqsbrtayEGubgPLTl7anjqcSRTK7/ZPlQhipuWdlWpVqL0f+97HD1mcyDE0Gf13ib3xWGDmPWPT9wOOc/DaffOsfhizeZNfTXTfQAdByR9IUOoa/WcuL9eWjKI/GdZfal7zQR71X9KH4rihNF1YYPca2O3OilnM+LxHdm/Wmww70KZDkHyT8VhJOnYZr7kIeo/PEg1zOsXIvscL6MeHcOFW8v5ahaZ/wSrKYwNYqTm5UM+kNw3TVO1/8JQsY+8pO1hoGGVFOqTqHUyqUMr7DFOKiiyPgki1Lj911lUQrHor9vUVQyz+cZ/CroVv/DrAtXScCfIql8ez7J6aYYoLJMRfo704iPy7N6W1PvPu3odmiCQ+AkXBWx5C3cSMUzk1F6tvCNtTpytmxGNzISr8eMpz0P+iJXJFJyQEWZcUBTxaUssq+6WL204xURiTxjCYeiVXXrtuJcIkmvjUe1p5lb3vr4E/zn5bBmFskJ9WWdQufg3m8TJ99PodBYZ02ZiqP/t4TKJWsY1dwpdTtVnk+hcGEoe9+JJedSdd1+WKqO5dDbschWTmeE6SxRHsyIlUqK31pKet0+CxWX0kieO42kI2bZ1PyzaKxXX60j55P5ZP5uKyqzcRXm69W0HSqLUkh+axO2nyyoX35rOAXj9a4HZe+/R8Y5Y7tqdeTGbaXY4jkNNediOfr4aOI/SqGgzPi9YVwHudsUOAQ+1Gi8Qat04C17rWL/a+b9ehCfH1nN9rPG5VZpSY5dT+Q9E/nfMdYHFZbv/T02NjbYzEloVV+JNaJ7X2i7NaHEmJ6nbnz2/qjPJ/OgxSN4vebGIx+6iYyXRpNzQtN02YFKHPZMo8xnOYNNvYeevjhuNE5r04BdK8/e32MW9zMNn0PvNH41T++K59j7E9mZnAd4IIuYg/c3mxsOpBs6h+C9VRxbHkr8TA14BuO0cjUhU5RUpYeTrThDuemZ+m4TCdldxdGVr5O8LK/+mfMvP0HxHssua2vs8Hsxkgsbo8hJno5XiGFFOI5cxNO7Ezn28Sziw43jCkZORD55MWMilBYD1Ay8nokk78DrpCjmm001ezzuiQ3ETIgym5fYoKzDJ4Znmzfki/Llhzi6MAXH7XG3eQRtFNmKKOoevWBct36xC+q71+XBjNu9maMr55P0dh4olDi8vpmQudOxezeRbD8FN8yfUe8UTOiBBL77cDkpI1MMYwBGTsTp5XRCwy0HOTYm81nAmE9UHJo3j5T7dxMy0g7wZdzOb8j+WxRHx0wzXEseGozT6wmEhisbDN5s/JsC5utrotnvKljbD32IMV0KMtsPHUcuYrLan2Nrt5I9PYoTZ7UYfn9hEq6fqBkdqGjQLvfwzYS4byVjjWmfVSALfAKnucsZYzHKve6z+Er9Z1E2fhp+Rxc0fHS22XpN9jOt1+m4vvsNwRbLbzk7vBfGoe+1HNWMgZzPN/2mxDTcUjc1uOPGdsh0njsWQOaWzXz33OukN1gH3zA6sOsusTT2A2ui/sQKi6mzt0cw2/j/s/4fEfeEIWaXcSvJ+FUMKxJfY8Hu+mfvn3xlHEObOA3PV8cDrrw7M5T23mtgo1KpJGdnZ1xcOrtTof3UajUiVkHofiqPLCf+VTt8TkTSaCC5IAjtUMyOqQOYfm4tJ0+9wcPtrE2c6QuC0E46Tidsat0APkEQWiifH7+E0K3h7U74IJK+IAjtVZZOcVww7sdbMYBPEISWOf8j3/ESrz7d0sEytyeSviAIbWK4PTERFEocN+4goGO+kwRBMPfgS6RKL3VYdSLpC4LQJq7h25gR3tVRCILQGuKWPUEQBEHoIUTSFwRBEIQeQiR9QRAEQeghRNIXBEEQhB5CJH1BEARB6CFE0hcEQRCEHkIkfUEQBEHoIUTSFwRBEIQeQiR9QRAEQeghRNIXGjqxgRjFBtQARfHEK2aTXmRZSEv6XAUxiib+5sZT3JZlN7m8X6gTG4hp0N4skhUKYhTTOJrfsGjuxvHEKBQkn+jIAIzbcV1Wu+uIT9AChp+abV99baWn4Mh+npm1g97h9X9Tk0paXVPG3xvW0dZ6BKE7Eo/hFdpuSRIz3vDv6ih+gVIoTteAp4fhZXUaFzarujak7q48i1UfXWN/V8chCN2cSPqC0M04PDORym37yJ25AC+g7HAiZeOn4xgX29WhdV8XdWwD4D7SEp5kVDuqGvXKNG6+AlBC3NJUXszriAAFoXsQ3fuC0N2EPI8rmyg4AaAjL2kfTlPCcejquARBuOuJM32hk2lJn+tDSWgWY9z3cfStTVSeBVnI83iuWs6ogVbeoteh3rgU1eZ49CixnRLJqHcn4tFgb9VxPmkr6r/GUnFCA3ggi5iD97sL8FM0rE69TkE2STz3zEWOLouiLFUDI6fjHrWcMX7yRr8Br9epOPZ+FIVJKei1wMjpOP9hPqNDlThalC09vpWMj7eiS84DhRLbKYsY8fpkHpQ3LFdxLp6jKzdQlpwHnv44vriS0U1dGZEFoHz5IY5+nUalkwZN6nSUHzhg7aqy7mw8x9431nubdQA61BuXo/osFn2+AlnI8wxcNq2JAFrerlarOsW60FDePOTAG0knWTuhX9vrOn2A3iuuWEy8QlD4jrpXYXPHszPUxfDixgV2f/YD69MqyKgC7GWE+bqw+JUgRt1ruRe0lJ7yC1ls/mcBO3L1nL0J9JYxzqs/8383irDBfc3K1lCc+S2rYkvYrdFTDIzyuY/FjcoJQucRZ/pCQyMXMUO7CB8At8lM1m4j0K0D6r2kQtNnOk8fVTOj6Bjeft9zfkIU2dWNi944dYbeEZuJUGuZejQKecZsjq5Jo9KsjCZ6Phl/rWLgP44RodUyoygVP2U66seXc+KGleVXnOF8WRDj4rKYob1E4JwqCp+czzGLAXPcSCP5yQhKfSMJydYyQ6sl9M/+VLwdTkqyrkHRwoT5JL+UiXxJIlO1WiJOJKDsF0/GCxtQm8dQlEhy2HtUjP6QkEtaZhxPIiSsnNOfHmxydXmETMfxowSOJiSinz8JX7vGZcpSl7L3+RQcjcufoT3GmGd05Dw+n/RL5iWryfkogux9dnjGXGKqVk3EtkU4Z+2g6KfG9ba4XQAoCNyiZXK44SjD5w1t9xznceMHol4/ztSDxoQPUKVnd2YRQUtTya667bublneYp9+6wDK1MeED3NRzSH2FqauPcajcVFBPQdI+AqKK2GxM+AAZ6itMfWs/bx+/1taWCULrqFQqqbi4WLobiFi7ixIp7SVnKdq5ib+1mY3KfvHZxYZVVB2V9jg7S3sOV9VPK9wl7XIOl4781LDofw6/J0U7vydlVTWoQCovtwjLWp2SJKnWOkvRy49K/2kw9aJ05PnGcZ39+HEp+rV90lWLqi/nnZGu3my4rMRhwxotS5IuSkdecJZ2fHxGqq1b/jAp+oUYyWINGNs1S0orNE3JlL52dpZ2xZdIklQlZS13lqKdI4zrwzDv6yxT2TPSwXHO0u5Ey5VgbMNbB+vbULhL2uU8TEpMsxLr8xbbqxXt6layk6VeYbFSr7Bk6Ttr8ytypfWLY6Wn//mjdK1WkiSpVrp2/pA0JSxW6hUWK63KtvamYmnHEsP8KYnWP8unPjXM7/XnTGO9kiTV/lu6/FO2dKrIbE1dy5BeDouVev1ur5RUVGmcWC1dyzXG8LsU6VS3XLHCL43o3hfarhWj92V97BtOsHPAFqi4qgPM+6L7co/FWa2Doxw4Q+VVoK7XwQ65ZVdzk3UCjg4W18TtuUcONVotYBwlj4aSwypk4z1wsqjadYhvg9f67HTKtJPw8rM8BffAyR80mXkU44s7WspztODvVbeUhu1qih3/M34ROZeUKD2tzM4/Q5l6Im6+jeuQD/CAFSqKPgg2tOOyhkoCcHnAMlbDOmhbu+4yfZQs+mAwi2SmbnwZ/QYrCfMsYrdlb09r2MoAPXybh/O3ebj2leHt0ZewUYMIC6m/ZFB+usQw0PD6dZ55NaFxPdevcOgC+CnbEYsgtIBI+sLd6UYeGZ9sJv9fB9Gf1TaY1fYBb1oqj4BthEuzJUsL84BEcodsJddqCQ3XAHdKqFIB3q2PxiFwEt56D1ytzSzTUgM0GpBQ5wzlRYAblJZoWrzMlrfrblND8clvWbWzhP0X9BR0UK1+k31Y+e1plhl3weLreorV1zikvsZruy+R+dcn8bOHqhu1zdSkp6qymSKC0AFE0hfuQjoyV4RzvmwxAV+t5kEnO2PuyyJZEUpFm+tV4DAWyrQlNOopsODsrgSU+GkjDeMfmuSCve9tC9yGLyPHNjHLSYEtgL6p9yrpZ+wVcXbxAMqbKthAy9t1dyk/8jUBH1W07aFRt9NnGJEbBzNfk893OSWcLdJzWXOF3Wo9BVevsD8X/IaDfR/jV63nIM6te5RBHR2HILSQGMgn3IXOUbZdi0PoJLzqEr5BkzmwRTxwecwXfY6GMos5+nMqcszG8cmGBiBXpFCsbq5OBc4P+0JWLpbn25UVOqvvaBHPh3DySeSKqnEdussamBVQfyXEU4kjmVz/yXLUZBW3LN7e8nbdXc7mGhP+o0pKv5zGzYRp3NzxMH8Z0L56qy6kEfX30xT0GciE0MdYNHc8HyweSoTFYPx+w12YDZB/ifXfFFClB9BTdTmHzX/aw7YLbT9UFYTWEElfuAsN4b65CiqT9pFrzM41NzSoU0twmNK+mr0iIpFnLOFQtIpSY46sOJdI0mvjUe3R1B9UyIMZsVJJ8VtLSVfrDF3tQMWlNJLnTiPpSH029QpbjIMqioxPsurqrCxK4Vj09+2I1JcR786h4u2lHK1bfjWFqVGc3Kxk0B+C68clOAXj9a4HZe+/R8a5akPZWh25cVspvmpRbSva1SZVp1j3+ABsbB7gzf0t631okvZbppoelVt3657hlj3D43MPkGGcOvRB482W3+bhPMU4/3cFlA83HDIuW1H/qN36x/DWP5hn95bUxo/kvZnH5j9fYtnBCwTM21P/2N45PxB1HbjXhQmm7pJ+/rwz1x5X9Gz++Ft+NWUHvcO/4FevnuK1kxUsi/mhiV6IU6x72AYbmxGsy27f6hIEEElfaI81oR377P0WkzPy3QQGDUzh5BgFMQof4t9IofeoiQTMiUS/zKftz393Cib0QAIuP0WRMtLQnq9e24Xs5XRCZ3o06FVwD99MyHIl19ZMZKfCEMfehQkQvpwxY81GyLlNJGT3ChyPvU7yQAUxj4SSvLsfw19+ol1rwWn8ap7eFUxF3fJHc3SPHO9vNhPY4PkHdngvjMNvUjX5MwayU+FD3OwNlPpPw+2BxvW2uF13kX5jHyNzel8mGMeTDnLvz2ergoh8Tsmi21/JaVpvJYs2jidt7n3MVsjqxl649pUx+4nBqD4cj1/dDiNjUOgkMiPdmD9YVte9P6ifIyt//wiqPz5ifexGcT4ns4EJrxLu18Y4BcGMjUqlkpydnXFxaX7wUldTq9WIWAVB6DEy3sfmN3/kpYRrbAlrx4OMBMFInOkLgiB0U/nnToLru0xrz5MLBcGMGL0vCILQLVWRr0rg4cUnedy++dKC0BIi6QuCIHRL9jz+gcTJrg5D+EUR3fuCIAiC0EOIpC8IgiAIPYRI+oIgCILQQ4ikLwiCIAg9hEj6giAIgtBDiKQvCIIgCD2ESPqCIAiC0EOIpC8IgiAIPYRI+oIgCILQQ4ikLwiC0BI5qQTMSiVb33zR8m/20HvFcdr548GC0OFE0hcaOrGBGMUG1ABF8cQrZpNeZFlIS/pcKz+pW/dnfH8XKE6YbbH8LJIVCuITtI3Kqtd11M8AV6Ne40+Mwp+k49VNlDGsM1Mc6nWKtv/8b1udPlD/G/Pab5kankBco9VSQtxSs9+Mbwnj79pHnYbsbJg9G7766nYxWFtud1fFoQMlMHag2c/lNuUSu/dUMDtIyZ37mRzDduv99x9aVrzqB5ZN20HvafvJqGqubB6b39pB73Czv5Yup91a2S6hWeLZ+0LbLUlixhv+XR2F0I2sWGFI+IcPw3PPdXU0Hei6mt1HbFnwV2XzZfPy2HS5Px882r/z47oDyo+f5TXZIC4lPIprVwcjtJtI+oLQbnb4LMnCZ0lXx9H1nn0Wvv4annqqqyPpWOVZRWwePpBS9+ZK6sk+dgWeephx3fmX8eyHsXLHMFa2oGjVjdpOD0e4c0T3viAI7fPvmrpr17NmQWUlbN5svWjV9Zo7FlbHMXTXz3+sBd31VWoSvoZpo1vQI9CR9BWU//vOLvKO+KW2qwuJM33hjig9vpWMj7eiS84DhRLbKYsY8fpkHpRbltSh3hLFj5/to+asFoYG4/T6ckaHK7EsWnp8E8eWb6XihKauXLu+aoviifebT2XdhEj8tHNg43JUn8WizweHT9RMDlcAhuvy2WvMK4jET7sIn/bEYFJ1inWhobx5yIE3kk6ydsKduzpsoKf8ZCqv/aWEuOsw1KM/K98aT5i7rWH26QP0XnGlwTsOrdjBMrPXYXPHszPUheKkBAZuaXjh+MV5O3jR7PXK96YROdzwv6G8I2mfuvPdR2o2qfUU9JYxYdRAPnjlUYb2Ma+pgrPffMv6ndfYr9VTDAxVODJt6jDmjx1MPyvX34sP7iFocwVVCjcOfvIYQ5tbFTnG7vpHmu+uL//2IlED3DhnbUfUX+fskQzWx1xhm/EoaZSPCyt/H8Q4hW19Oe23TJ1XwO66CfeR9uUI+Oxb3jpYQUaVad1eISr8dIN1zuXT9P76dP1r5SAurTZ1y//QuPxTw7n5yjCLQEuIW5rKi3nm0woYGF5g/X0tbZfJ9Ry2bfyB9dk1nL0Jg/o5MmfGMBY9Phj7puK8bbsAfQmHPjvOMuP6ce1rS8TUh3knxHwfaNyule/9lvn6w7z9cYkhdlO9+jw2vJRFzosT+PvjFtv9dvOaZYhh95jH+LtrTtOfLwBqKM78llWxJezWGPdtj/6884fRRAzu28rlmlGpVFJxcbF0NxCxdhclUtpLzlL02swWlf45fp4UPWyedERVLlVLklRbVSKd+jBCin5qvaSqMC95UUpbMEyKXhAjnb1qmPKfwqPS1zOGSTvWZkr/Niv5n1PrpR3OE6Q9ibnSv28apl1VxUh7wh6Xop3XS6q6kpnS187O0q74kkZxqdY6S9Ev7ZIuWws6a70U7fye9PW29VKaMe7bylpvsdx2qjwprR3nKoGn9EbStY6qtQWKpR1LYqUpn2ZI3+SWGSbVlknf/O1zqdfUJOmbSitvKTkmTQmLlVZlt6D67GSpV1i8tKPx5qhzOTFe6hX2uTRl60npck2tJEm1UmVRtrRqcaz03+9kNNhelxPjpV6/2ysl/WzaO6qlyp8NZafsypeshXv5wL+kB8Nipf/+30NSTrMB10qntn4u+W/NbUHjyqSE5bHSy6llVufm7/pS6jU3SUoqMkZVWyZ9t/VLqdfUvdI3FVbfYlxfe6VVO5OlHbnW6zUwbLdef1O3IE6D7/7WsvKXE+OlXkuOWf+cSK1sV0W29H8RsdLMnbnStVpJkqRq6VruUWnm1FjpD4etta8F7arNlTb9b6wU+KFpf5Ek6VqutPWdWCnwb2qr+4AkqaVVYbHSW58eklYlmmJp6NQ/P5d6LTwq5VtMr8xIkv477F9Skq7pkJrW8s9XZUaS9ODUeGlrXblKKX//vyT/sC+lrRetBNxContfaLs1oVZH7zcYKV+dxullacg3fsgYHzm2gMxOgd/C1Xj0i0K1XYXpDqjK9FgKjjyP9wfT8XIyTHNwCyJkZSSyNUvIqBuSr+XEx1HoF0YSHKrE0dhf5eQzHd+wjjwjTkPmv4hAY9x3lP3DvPHNZSTppy44y4dyuQvjlMazGFl/xr2oZNHNa+w/2dxQ747Sl8UvPoxrbxkgw37AcCIXuOGdU0Bc3ZnaFb7LrIJHPZng7micZou9+3AiP/gtOycPwtplddcnnuFcwjQuteQsvzXd9YVqtp12JMzf+tnfoMlPUbruSSYMMEYl68+oiMEsunmd/advt15vYO8znghl9xwY2PJ26cneeZYor8H8ZYrSeAZuSz9lEB+s8mdlYNvaV37kLK9VufDX35v2F6CfktlvDcb7azWb85p+7yGZG5GhSqs9Qn7j3ZigKWJ3jvk9mlV8l3ENxt7PuHacbLfk82X/yJNkfvoks+vK2TPoqYdYMKCGuOOX2rxskfSFtluSxAytttGfqfsbQJ+dTpl2Eq5+dhZv9sDJH/SZeXW3zF04tgFCA/HsY1HU0ws5KnQ5GuMEDTf2gIO3Fw4WRe37tOOT2Egwrh3SV3/36dfHYs3a29IfKCjX3aEIZGD5RTzYmXHo+e686XbC+3h4hD2uqTlEpRVQfP06VabvZ1mz99W1iKm7PqzZnK8n+0ARp26bDBzp19cirhat1778Rtkx7ekcLW3XJU5l6fHz7N9obITrYOuJt3lVnDpdAf6ujW+l7OeIZ4P9pbEJwwc3XbW7D7OH61l/QE1dKi4/TdwRGYuf9Gl0QJnxd4vbGsObvvW1ZZ8vGf36OjYshwP2v4JD1240HXczxDV9oVOVFuYBieQO2Uqu1RIargHuaCk/B+yZRtL2JirTaAEPKCsxu+7embrz8GsBYNDTk8h0Pc76vVm8+I8aDl0H174yJjwyiMUvPmJx/b+1Sth/oILZzwQxqLmi+rPs/xoWL2+cDOrcuMDuz35g8/EKDl1vOCvstpVbOQDqTlrcrhsUXwbP+xoN5GkHHcUlwANNl9j98xXAxeo8h9seHPZnwlP9Yc0lvvvf4Yyzh4LDl9jm4cY578bvG/XKNG6+0qrgb09/hYydGaw/eJ3dlk95uk17myOSvtCpnN2VgBI/bWQzA9wU9BsCvJFExBL/23/HObngAFS0KAI7UNxmtlMXdN0LHcgW14AgPggwvtRXUV6cy+bVP/DEx7aoljzc9gfkFOYRl9eXRcub73auytKw6T43n7kHxwAAIABJREFU0qwkA4Nr7N9wnKkVbmR++CR+/UyHBoZBa6faGmOXa027+uA6APKv6GgqCbeeHFcX4DY3hYQNaPtlEXv/wSzum0Xct9cY93gpu7+qYfaLPs0fBLabnuzYVIK+6cOe959hZ93lK+NgxHbULLr3hU4lGxqAXJFCcQse0efmPweSv+d8syWHII+AypzcRmf8VTcsTjXwwCkUKvM1NHx6qoayDJA94IJT86EJd5weLB93e6GUQ8j4zYP1CaNKW0KDq+Eye/q5D2f2BHuKc8oooK1M3fUD+U2zHT7X2P/1NR5+YtBtkkER2SchbIy3WWIE9NyhXqvO0pp2DeRhfxnZ+dcaP544P4fs6y14vnEj9jw83BGyihs/Hrm8gnxk/MbLrQ31GsmUhD1ny7Y9agpyLrGjsj8Rd+ShS1fI+VFvMV4FQA8321ezSPpC55IHM2KlkuK3lpKu1tUdkFdcSiN57jSSjtRfw3Iav4BB3ps4+U48uWXGibXVaNI3EB8RRXZZXaUMnx2J7KMoUpLyqDA+O6RMHYuqUT+YHO+JC2DbPzhWt/xqCvZsovBIMO4hvp3U8HaqOsW6xwdgY/MAb+7v5k9wt7dt+ZPaHGT4tajgddZ/dorim3pAT9Xl00RtKiLHexARpuvr5adZ9m4qT6xJI6PQ1O9TQ1XhKTbtrmJUoJvVgXrFB/cwJHwHA+cd5mxTizd111u5dtuINoe4047MfmzgbQq54fcI7D6aQ3a58VNQdYmMbysZ4N3cAlrCln6Wl3/viNa0S4ZfmJL5uRd47cs8ym/qgRqq8o/z2qpTLEu2Njit+Xb1GzuUv9iX8IePTfsLUJ7Htj9fIOcpH+a385EJgx4byGxNEa98VELxeI879NAlFx4eLoNv89l/2XhYe/MK2Wml4HWbt1XlsGGeYTzB299es1pEdO8Lnc49fDMh7lvJWDORncl5gAJZ4BM4zV3OmLHm1/c8CNx4DPWWKE4/9x6ZZ7WgUCIbPxnPlYvxMzsld/BbRPBeO44tn8ZXs+rv0/eekUJGesPlO45dzpiPNnDyrfHsPKExLD/keQYe3cxvPM0KNrpPH7IVUWSbXlg8drjxffrm5ScyKHsbge04ybhr9PVhToSGKU3cp9+A0oeVj6bxym3u0zfoz+JnbIn7f7vM7tMfxMFXHqk/wOg3nA8+ceXQzv/P3t3HRVXnjf9/uSMID/nJTTIgJguZKBskKl6SikVaBmZXQLpftNowt0vNbrQt73ZNvTbvSq22tFzTUoFWBbo0MQw0xRtcUCEwFDMIVoQRuXHxYkTnOr8/ZoCZYUBAEJH38/Hg8WDOfOZzPudzzpz3OZ+bM2ms/cvuun5P/bzvEex5tH+rR2Vo0wtY36ep5vp6+ceKOP7oALY22Y/gSPDsEWzdeJoX/msXZ2/AIG83ti18jMheZcQvT8bqX4a57w3m6UNgWHT9C4tz6x0JmuxG6JIWztPHKL1R2tSN0QR+Z7KVRvP0bdj6WRgR6hZuF4DDED7+rBcxX5wm8Pl0wzx9G0KfG8GOEEvtJM3YLpUXMz+1Z9DWE0z6Q47RPP0R7BlvfAxYeP6AyTHbm5S4JwkwL4LDYCIevcCTh1SsDrzlfI82M2jyWFK0x3j7rTie0YJHX0c+XvgkEQ9qOfhWJla/VJo+q6CZumVlZSnOzs64uLRVH0v7yc7ORsoqxL2t7uE8lk7Ad0Q58Uv3sWVwILufberunboHtZTPDGPZCBn4ea/K37mLAUddOP9hMwZ13uWkeV8IIYwZ5ts33Vyvp02/wFpcCPOXgH/P0uUSv7eGyGfuxAC+9ifN+0IIYaxvILvjmpfUZkQwhSPatziig+XqB/DdK7+aKEFfCCGEMFM3rsHGmmVzx97dv5rYAhL0hRAAPLboe47mXO7oYhhoTQevCdFRtDUsXrXPbABk5yVBXwgBwA/vPdHRRRBCtDMZyCeEEEJ0ERL0hRBCiC5Cgr4QQgjRRUjQF0IIIboICfpCCCFEFyFBXwghhOgiJOgLIYQQXYQEfSG6rHLil0bzygHLP8EphLj3SNAXnde1C8Rv2E3gFP3vR/d7aRevx2RSrOvogt0JZ1gRpt/uur+NZ1qWheGHZYKHGj9TvISY+dFMTihp09K2RurGaKzmH6O4owvSaWhJ/UR/LCxO03Z0YZrUpvs2cz9WYXHEaJq5XpPvzX5S26IMzaU5xmSz7+2d/q7JE/lE56TLZd2b6cQ92J9tX03Awwq0l35k+eIzDL9wg6w/+9Pkz5t3eg+xIO4hFgB1vxPewhwykos4/eggdtzbFSVEnYBXpnDjFf3/+p9wvsMFUI9kR9xIw4szrAjL5PQdLoIEfdEpVRw6yzs3epPyxgg8rPTLbPoMYdncMjK2V3L2KgT06tgy3tV0uRw8AHPn+XCP/I6IwIaA2VO4MbujyyHuZtK8LzqhEg4mV+E6si8B5hHLeyy73xsrAf8W9L8D35sgb1VHF6URVZTfiaEGuckEGppZV2TegfUJ7ti+FRbJnb7ohEo5mwOPjOrd7E9oL5xg3Vf5bM7WkQ8E+LiwbHYgQWprk3SpG6MJZDD/HlvJ4g/zWXcRPBzsmDv3MWb6mF9J6Kg4lcLirSXEF+gotlIRHNCP1S+PYFAvlWme39V/KnT6WLYOvMDivxUSU6CjmN6kxD1JAIDuKmcPpbJ2eylbKvTpGytr65Wz77tyhjwbiF+jaXRUnErm9Y9LiLkKg9wdWfb2WEL7Wte9X3xgL8M/qWbWuxNYMNiu7pPaU/sI/OtVprwXyhzv+jLX7oPoczrO3gDXXiqCR3gwd6q/ob4M3RS5xuXIp19YvtFro7pqsRryU35g+RZD3dqoCO4FQX/+PSlDzS5+dKWk7khleeJV9l0F117WREwewsLx/XEwTpq5H6ulkLKtP3kbT7M4pYZ8GxWREx9m9WRv07Q08zjUHGPyjHzijbd551DYeoy3v68iVas/hnaEuAANj6+m68isDqxUBPu5sPCVQALua+0FYBVnDxxj7Y5y9ml0FAOD1HZMmfwQMx+tra9W7FtNJhu+OM/6jBrD8dLIPqj17wvERJ1meao+fYCPC++/8dhtbFfzzxvtRlfCwa0nWGzY703Wge4qGd8cZvEe/TGLjYrIQA/mvjiCQT2N0mVlZSnFxcVKZyBlFYqiKErJUWVSaJQyaW/z6rc6I1EZHfq18pfDF5Xqm4qi3CxTTu/do4yeHKtEF900SXv88yil+9qDyoGTtWmrlbzdscr9oTuVzf8yTnlTydsbq9w/OVbZfK5Mv6jmonLg7zuV+6cnKserLJWkWImeF6VM+jxJWb45Q7lUc7NBirxdO5Xu0xOUhKJqw2rKlOObdyrdJ+9RDljMsz7f7p9nN6s+lPJU5Y+h/6PElTdRxr+nKgdqt+tmmXLg86+V7pMTlAPVxmn/rRz//Gulu/H2lqcpr02OUl7Ye9E025KjyqTQr5W3fyjQ16uiKEp1gXLg7zuVB/90WMmpaViS459HKd3nHVUuNW+rbunSvljl/j/sqa/bmotKwodfK92nJymnjXfFzYtK9MIo5f6Fh5XT5dcVRbmpVBdlKMvnRimjP89WTKogI1HpHrpHWZ+abdifN5XqX48qL0yOUibGF5isvyXHoXn+y3ckKtG1+6MpGYlK99BE5bjFN28qefGxyv3Gx1djddACl/bGKt3/sEdJ+Ne/DUuuK9X/0tfXpF15pvVlcMt9W5WhvB0Rpbyw45xSflNf9upfU5XX/hClTNyRZ5o2I1HpHvq18sT7tftLUZTyc0r0Sv2xedpSAWrL3WhdtXJ/tUi2sryp89jNc8r6/4pSRn94qv5cUX5O2bzQwnGo/Fs58KHxMVuf9v7/TlPqv+oFijTvi3tcITFbSnGMGMGyQDdsVIDKEb+QcSwbqeXFjelUNPiMPY8MrU1rg8fEoSzrU0PMMaO7Em02m7/SEvHGk0R6GUa/W7kRNH0Ey3qW8tqO3Aa51oq/ZMfMyMG4WjW8A/EIf4rLa54kuI+h30LlSEBEf+bcuMq+zLYZkZ3/QyFbhroR1MQAvgp7F4Jqt0vlSNCLXsy5Uc6+U8ZlsCPg5UC23lfKpOUnKNYVEfN+LqfHDmZjiJtpfpmlxONI2KP99PUKYNOPoOmhnF8ZyCCrNtm0JpRw8ActxSM96+vWyo3gUDeCrpRy8EJ9Sm16Ju/83IutCwPxc7AGVNj0GcyCuf1w/C6bDTkNp4cMGvyQYX+qsHEfybLnrNn3fT71R0xrjsNa17DxGUuEl2OjKZqlIp3lW28wd+6TpnUQOYKsZaPwa9UNcSnH07Qw0pPgvrWtPdbY9B3MgtW/Z0e4R+vGjPQczOrPnmbjJC/DHa0KG/cRzJ1gzb4fCslv8AErIqfW7i/AwYuI2V7MvFLK5hOt6Uu4nf3VNioOneV1rQt/mz2k/lzh4EXk2/3x/i6bDcanmJwTvHPIjo/fNq2DyDdGsGf2w0aDmvtJn764F+inmdVPgzGavnOpkH0FKoIGe5h9xgbvATaQWcZZ83N4T2uzE5UtNv8fHCy/Vr/opyJW3LAjyMfO7MP98P4dZGSXWjgx6YUO7dfEzAI7HHqZnX1trHEE8isqG/1Us+lyif+mhgVP+DQ5u8Ghp23zyqByI+IND4J+vsAr84/xjqY37099qMGJ3uF3vQm1KmX5ptOc1ZRTcaO20lVwm8MKGk7DsjQNqgZto9dMKhzqCqwjI62cYl9XhvQ0S9bXiUfQcfxn87ytsTXbYJuev4FL1fVT0lpzHNbpxSNetz/2QvvTZbZgy6C+Znn18mBQHwuhOXN/g3ptOM2uN0OG2uCanMOKlHyKr15FW7drb7PMvXo1OI4a1Ksx89X1dOMRL9hwrqjl627F/mrecdhcWk5nVoG/a8OLMQc7PM2Ow/zscjJ69cTT/Eut7l9/EWAgffqi87nPnkHA2boFLkSsnEIEGPpDjU4Jmiri0RE/P5p3Gsku7woEqFtWhOLiakDLMy9FN5KiimLA/JQBNH0yvHaB+K1n2HCiioNXTd8KbVkRLcvOZy0u7PFvwzH7fUaw8JlCfGNrmPlGAAHmwRKg70h2/K0nW6J+5fXFueRo9GMgggY6MvMPIwntb37x1HzG07Aa58aQoSo4kMe+if31d7o3itgXX0SOtwfB7rXpSsn7F5Cbi3NYI601l8oBN8vvNea2jsPbvzACqKioAexwbO4g18FPciPu1sk8Jj5NmusJ1u5J58Uvajh41Wi8hnl/crMZxsvElLDvgs7sArr1x0qztWJ/Ne84bK5KikuABxpPEf+vUkA/rqO4vAZcbXFtRs4S9EXno3LE2xO2FJVRe9A3Sm1HKFWEfhpGRJ+2K4Krqy1gS8rOYALabAB8OfvWnWBylRtpHz6JX93tZ1vN59Vy8IdSvCeMbGVTbiNyf+CPsRDaX8WG9YcJ9X+aIEsnevVgIucMJhIAHdprRRyPOsGTC39g99+fJrhdZ1yo8JsayG7NMV55NU5/p2gY6PT9whFGJ8veeN4P3D+YG7MfarvVt9Nx2BIODtaAlvKrQJvWtTWuwwNZPdzwUqelovgcG1ae4YlPrMmaN6Tlz8zI/YGJfy3lkTdGkjW6vkvojs2t7/D9ZY+rC1DTeIrQPvXdPa6O1lCsbwFpMvBXpEvzvuiM3Hgk0JriI0VkmDWxac+VGY16Bvq4EHSfloM5bTxH6EFXZlpd5XhuWz7+r4iMUxA6xtso4AM6qG6L7CsyiTlkTcRIi+0PrXPtDCveL8ExYgQ7Vgay9cGrvLj8GPnm1XKthOJrxgtU2PTsR9CzboTeuMbZO/DYPW1uLvEqD9J2TuFG3BRuRP+ejTPN70RVDBrcC9f04gbH1m1pr+OwBWx+50wk1Zy9aL5h5WRkFrY6X62mBJOeE5UNDn0HExlsQ3FOWaPdXE0p/rmSVPMxIFDfdWBJg2OuiOO5MHNgC1tl4C7YXzYMGWwHlo7DiiryUPGI0XZ5+Djid/UaeeYDDXT5ZGQbNRn+WiZBX3ROHk/0Z051Ca99cpriGzqghorcY6w7UUOQScr+RM7uTc7nyaxIKzKcNHRoK3KJWbWLF7/Jp1XD43o9zNw/WLF27T5icmtPDDVoL2ay4u1dLD5R2opM3fAbAfGHc8ioMFziawtJPVZNH+/WFNJU8bGLbBncj9C+t5+XXjn71mWyXu3Bx2Eehv79/gT9nM8LUcZN46Uc3PgD/d78li2ZhfUnbm0h+2IKib/PkSD3hrnb2LRlc0Qp+3YUka92xPUW2TqMHMrqviW89sGx+v2gqyI/bT+TX9vHwVaN4Gqn47AlHPyZNUnF2rX72XexSr/sRimpW5OZuDyTg9ea/rhFFZksXpTME6tSSK3Nkxq0F0+zPl5LwGg3Bln42K32retAJwIoJ+6Qoa50WipyT5OnsmvkTvYGW6JS6vdXRS4xn+Sy4b7eTBvRmgGQHb+/HB4dxMc2xuc4oCKXLe9fIOcpH2Z6GSX2HsqyEVW8/n4KGRWGkmnzif/gBMM3ZdZfhHs60y0rK0txdnbGxeUWzaR3gezsbKSsos6VM6z7KJv12TryrVQEB3jw8WQd77xWTOhnYUQY9beZz7f1cLAh+ImBLJv8kMl819p5+jdeMW7aNcwxfsB8udk8fernJ895vH/dIKSG86iN2bDVuKzXLhCzsX6u8SBvN7YtfIxBP+/nmeWlHBxbWwZ9k//ixrL18qBw5UijE2QhW95MIS8ijGUjmurP129r/Jj6eeB6hi6GuvnhOvIT/ofAr+Djv4URalzXmft5Ymk5ISbz92soTjvG8h1GfbS184jr5umb0ZzmncU5rDN5pnrr5+nry1Xa4FnrHg52TJvuz4KRRneEZvP0aWz8Qe08fbMy6Zuh7Rosb9Zx2GCevpmnTI/DFh1f1FCclsLiDSV18/SDBvZm2e3MZ9eVcHBHGhu+v0q84YLIw8GOac8bz9M3c8t9q6Pi1A+884mhnDbWzPmvkaweDfF//YHJmUbblbkfq6VVbH1/MOxuep5+y+qq+eeNZmvhvm3pPP2ziUd5Z0d53Tz90OH9WPbKSJPWLAn67aQzlVV0ATnJDF9Sw+qvggnqis/dvZbLhuVncZj1FBF9jUcz61uIXplfQtD7v2dm/w4roRB3hDTvC3HP03Jwfwk81b9rBnygOCWb13Ns8Oxr/iQ1axy8+hF0n46coqsWPyvEvUSCvhD3PBuC3phCWqTXrZPeo1x/a4+fcR9xrRulZOzMZPlVG4IGyg82iHufTNkTQtz7vB/j+z+nsDgmheHr9c/+B8N88sFubP3bCIJa+KwGITojCfqiU8nMK8f/rX0dXQxxjyi+qmNLSiFbUlo/ZU2IzkSCvuhUBns6ciNuSkcXQwghOiXp0xdCCCG6CAn6QgghRBchQV8IIYToIiToCyGEEF2EBH0hhBCii5CgL4QQQnQREvSFEEKILkKCvhBCCNFFSNAXpk6uY7t6HdkARbHEqiM5UmSeKJ1EtZrYOE2Dj2evUbN9eizFd6Co9y59/SaeBNBwZLrluu48SoiZH41VmOnfikwLSTXHmBxmnnZ/g5/DFUK0jgR9IYQQoouQx/AKIdqZCxErpxABwBlWhGWyuLGk6pHsiBup/z9zP1ZLS+9ICYXoKuROXwghhOgiJOiLO6CS7E3ziQ32Z7tazXa1PzHT53PwiIaaRtLuGOOjTztmCglxuVSapNH3c+vz0v8lnoTLJ9bzTe06jMYVZK9Rs31NOlXnY0mIMLwfPIeDGZXozNauq8wldc0cYkYY8h4RwjefplB80zRdbZ75MZFsV/uw46N0qq5lcXC6P9vV/sR+mUV1i7erdbTpaxjbpxvdBvyJhIrbzCxzf30/uq6Q+HW7GBAWjdWUXbwem4vWKGnqRn2f++SEEqOl9f33psuFEHcDCfrC1LA5PK+Zgw+AWzjhmi2MdrudDK+TvSaMjFQvfKKOEqHR8LzmKOPeHE7Vey+RdMg47BVw5NVRZJz2ZfA32Tyv0RD+9UxU8WEkrEmnqi6dmtGbNDyv0fC8JgFnoObIZk5dDGTMnnT98k3huBoXo+pHfi4LJCgmnec1hYyepuXikzM5mofJ+o/OGE2edgJjDuvzn7xvGXZHwkl6L8Vo/Qa//IrVpC1EnFyK6r1dpJ3twdBN6UyMeZrqd2L56XpLt6uWP+M1GsYPq9/W8LA7/WPvNRz84hiTU2rIB9DWsCEqnVe+k0AuRGcmQV+0s1yKd2RhG/I0A516oAKgB84+4YTsSyDkUfu6lNVHosg/9Bzeq6cy0Em/zNYtkPHLFqBaNY/U7MbXUtV9OOPCfHFqdJTKAAaOUGNrWL/HpAW4P5pE8ZECozTujNl0npBF4+jbQ7/E2smfUTNmwafJnLtuluUDv6Vvd1D1+y12bKb6phf2gL23L7b8SvWV29+u5rDxf4vkSwrK+Q8Icbi9vOpdo9r7MW7ETeHGP0ay1Vu/NCYlX2ZmCNGJSdAX7cwL1zB3qv++lsMnCyirvF7XpK8yS3nh6DoIGY1nT7M3PAdiTxaVOQU0xt7ft0F+JuxsDQG/lg2/sYcajdlUuJ722JsuwdbOHoyCeGNUjVxw3M52dRxHQgJd9P9aeRA0ykb/v868Q0QI0ZnI6H3RznrgMy8ZG98ocjbMITErBV0eMGwC9uGvEjDdH2cANFScB3ZPIeHLRrIq0ADuFt9qLOC2VNX5vRz9ZDNlySnoTK4HJrQyx9vbLiGEaEsS9EUr9ICmupid7LE2WWDPgyGzeDBklv7lzesUn/2W1NdDSOIIEdO9ADUOA4C3EoiY59/0XXt7KUsiKTQS3Z+SGbfaF2dDEz8n17E9+MdWZnoXbFc7q7hWfetEQoi7gjTvi1ZwxykEqvMKzEa/F1CWCqoHXHAyWnpZYzZKvnsPXH3CeXAC6HILKDMsdvOfBon/5Od2Ln2j8rKo0kzA5UmjgA/obmob/0wzdPh2tRMbw9nj4P5cDlbUADVU5OYQn9uhxRJCNEGCvmgFe7wnzIItX3A0u9LQR3+d/N3ruXhoHH3H+9alrDkfxeHHRxH7URL5ZdcNwf86l7OjOLdFje3oh+suEJzGzsLDez2nFsZyrvZK4OZ1Co6sIzZiBRlltK8HfbFX76VkfxZlhil6VYXpZFxxMRsP0DLtvV1tOmWvBQYN740fwJVSnpy2C6uwXfh+VcMQL/OUxo/hrX8wz+KlFh7Ja/wY3roH85QSeMtH8p5mzZBudOs2lDUZbb2lQtw7JOiLVrF7dAljPvKi7O2x7FCr2a4exvGdNvQ7vIFRnvXprAdM5dmjcbjf3MvxZ4cRY0ibtCoLp88OMPEZ434Cd0Z/ehTfB9LIfNYwn91vLEd3Qt9lc/Graz4wnqcfwmXgcrDxvH3Dbwe0lP04guI3YJs8kwQ3Ndt9RpOY2IOBIVMZuOgq+X61z8NvqeZuV+diM/gxds52JLiX/vUgbzf2LByMR0cUpjiPUxlA8KuE+XVEAYToHLplZWUpzs7OuLi4dHRZbik7OxspqxCigdT36PbIn3k5rpxNoW02b1GIe47c6QshOr2886fAdRFTgiXgC9EUGb0vhOjktORlxTFk7iket+nosghxd5OgL4To5Gx4fLXCqY4uhhCdgDTvCyGEEF2EBH0hhBCii5CgL4QQQnQREvSFEEKILkKCvhBCCNFFSNAXQgghuggJ+kIIIUQXIUFfCCGE6CIk6AshhBBdhAR9IYQQoouQx/AKUyfXsT0Y/DRz8CmKJdbvW1wytjDazTiRhiPTfcjfbfZZT3/sJr+Kz4wJPNjzDpa5szq5ju3BP+LRoH7TSVSHwD4N44fp67okJJvwMHVjOd3lSoiZn8yLuaZLl707hQWDzZJqjjF5Rj7xJgt7kxL3JAHtW0ghugQJ+qL15iXw/Fv+dS9ryrJI/UsEqUt74LR6HJ30Z+KFEOKeJc37os1YO/ky6sWp8GUsuZqOLo24e7gQsXIKN+KmcCNuMMuaSqoeyY44Q9p3e9+pAgrRZUjQF21K1d0GiKWysKNLIoQQwpwEfdGmdDe1QDj2/eqX1WhSOPjOFGJ81GxXq9k+ZgoJcblUWvp8WToH34kkZoQh7YgQYt/ZTIaFloOq83tJfCPcKN9wvlmzl5/rMi7gyEtq9hy6bnidRaKPmu2v7qXYsOTizki2r0pHZ5Rv5dlYEl4Yrc9T7U/MG+sbrv/kOsP7hr/psRRfy+XI0vrtTDxpXFajPEeE8M2n6Vy+2fx6bYo2fQ1j+3Sj24A/kVBxm5ll7scqLBqrsP2k6gqJX7eLAWHRWE3ZxeuxuWiNkqZujMYqLJrJCSVGS0uImW9puRDibiB9+sLUsDk8Xxvg3MIJ14Q3+6M1ZVmkbo2Clz7Eq3bM2bUUkibOpHp2DOOXR+PUHarz9pL48mgSr6UT/oI7qtoMrqeT9FwIVS8mM+6/t+DcA3TXK/l57wpO/WEJRC3Br3agQFEsiaPWY71tCxPXuGPXHWquFfDTpvmkvlVB90+n4tHDHQdvKLlSCahBU0CV2hfVzh8p/XQCrkB5wV5sH1haV4ay5PkkvFGJ+9d7GbfNHmuuczF5LYcfn0nVvg2Mrr2YGTaH5zVzACiOiyQpoYDsz0ro/cctTH63R/02ARTtJTH0XXSzv2T8Jn+ce0B1URJHF38PuFioSX/Ga2p3gprRmzqir6SGg18cY3GK4XJIW8OGqHQqetqz9SlLZRZCdAYS9EXrrQph+yqj157+2E1eRcAMo0F8PQMZv/8o1fb22BkW2XpOwC8ykCO7Uyh8YSoetWlz/snl7Al4POmLcw/9IlUPewaGreTBMEwC6eWMI1TzNAPHu9fla93THb83ovGlPq3jAxOozisA1OjyfqT6P+fyoPdmyvIATw1Vv4C1f20Qy+LUe5uxW32eMT72hmU96Dt2AUNnjiXtb0n8rrEBirsLsFu9rv4XuxSKAAAgAElEQVSixEh2zDyqfRcwZoY/zrV14DaOUS8cIXb3r01WcXPY+L9F8qW3bjsfU9eo9n6MG6+4wI18YpYc48UciEnJZ/VTLri28dqEEHeGNO+L1puXwPMaTf3fiQSefavhdD2VUcCvZdOzFxzSUGW80Ps/cPLcS+EnUeQUVlJ2zSgPs887e4/GVv0FP32URL6mksrrltO6unvBLyUUA4W56dh6DsfRt4LKgutACVU5gdi7G64w8n6kLHsCvX3tMWffxx2+zKKosboIGU0/i1cDGipyNOA/EHezd2ztGq7n7uFISKDhYsjKg6BRNvr/dbrGPyKEuOvJnb5od5dPbCb177uo3J1u9s7Dpi97+DN+/xHStm/mp7lRnDyUDrijemYcrn9cwJgR9vUB3TOciQfUpG6I458zllBzJBfUXqjGhuM5exYBA/SBXKV2xzrnVyq5TtUvFdiHq3G3D+RUTi4EVFCd7Ytj7Rz5Mg010PAKo86PVBQBbhbe6t7Yx0rQZgHeTdWQEELcGRL0RbvSZa8naWIsdtu28Oxn+r53MPSDz2iYXmXvRcCrK+FV/euaaxryEtZyamIEhw8nEDSoPq21OpAx7wbWva6uLODcpvlkh76L1dGVDLMH3NyxzU6m6nou5YcCcZwPtva+WO8ooFijpebRAdxnuNHHSY01QKM3s144WAr4TXLBxreln+lcKq5Vd3QRhBDNJM37ol1dzk1Dx9N4jq8P+NBYK3ElxWWmS6x7qhk46TmcSKfyV6Px/tc0FF8zTWtr745fRDi2mjTKa6cM9vgt9o/+SnVOAZXuvrj2APr9FtudP1JaVEC1pwu9ajPwfBgnn72UZjWcV1B5qQBeGm7xJr9papyH+EL6OQrM3qmusjR/ofOwMZw9Du7P5WBFDVBDRW4O8blNfkwI0YEk6It25fq7QFR8S16iBv394HUuZydx2bxpn+vkb3uTpDFTSEzO5bKhj153vZJz277gsjoc17q+9koyPniJpOfmc/hkAVWGqW811wo4ueULqoc9Td8BtfnaY+u5l6uJP1I9xIu+ALjjNCmdgqRcVA+4GA3M82XoomlUvTOfw9mV+qZ+rnMxeQWnNnjh8VrrnjI4MHQutlkrSP0svW67qouSOLrtn63IraE2nbLXAoOG98YP4EopT07bhVXYLny/qmGIl3nK+ml8VmGZLDYsXby0dlk0KzINCzXHmGxYZrW01LCwlMDaZWH7SbVYmtOsGdKNbt2GsiajrbdUiHuHBH3RvgZNY9yecHQfhhCrVrN9RCRpF73wnRTOgxFRZKgjOVIE0AOPF7YwcddU2L2ApGH6ue4xwyaQmTUcnwMbCKi7zbbH790Exi3yonLDDL5x06fd8fgMCm1eJeDrOXj3qE/b6wFfytasw25Q7VA6NY6+FZR9FIutp+nwOqexK5m4axxVqyawQ61mu3oUh3fb433AaLoemMzTT5qxF3bPJMlo3n5snNE0O7cJjI9fit3RN0nsp5+nnxjvwOA/PtEOFX7n2Ax+jJ2zHQk2NJUM8nZjz8LB9bMx7qTiPE5lAMGvEubXEQUQonPolpWVpTg7O+PicvfPvc3OzkbKKoRoIPU9uj3yZ16OK2dTqENHl0aIu5bc6QshOr2886fAdRFTgiXgC9EUGb0vhOjktORlxTFk7iket+nosghxd5OgL4To5Gx4fLXCqY4uhhCdgDTvCyGEEF2EBH0hhBCii5CgL4QQQnQREvSFEEKILkKCvhBCCNFFSNAXQgghuggJ+kIIIUQXIUFfCCGE6CIk6AshhBBdhAR9IYQQoouQoC9MnVzHdvU6sgGKYomt++lbY+kkqtVsV48lKdv0neK4SLZPj6X4zpS2+Zq1Xe1J/5vykxNKAEjdGI3VxjO3/FTFod30C4vGKiyOGI2FBFcvELNuF76/1//e/IDXvmXDqVILCQFdKQc/+ofhd+kbya8FihPiLP++veYYk8OiWZFZvyh1Y7RhvZb+LJXlDCvq8jCtOyFE68mz98VtyKI4MR2djz+qji7KvejaaZavryIisBfrUmoavq/NYcVbp0nw8eb77Q/jaqWjIvcEr/9lPzmzgvn4Ucf6tLoi9n2QwjM/O5IyBwLXVd257QACXpnCjVf0/xcnxNFvkx0pcU8ScEdLIYSQO33Rak7zFsCW78m63tEluRdVkbollxhfLxY+bm0xRf53Z1jcsx/bZg/B1UoFWOPgFcjH/2XHhi2nyNAZEuqKiP/rD/qAv2YsAb3u2EYIIe4yEvRFq6lGj8NVvY785MqOLso9R5t9jLcPWLH6FX8s/0J8CcdTa/Ab6oKHWTOLw2AXIq6WsC/HkNfFC8Rf6m0I+NImI0RXJkFftF53X7z+OI6quKQm+/BrNCkcfGcKMT5qtqvVbB8zhYS4XEwvFfTjBBJP5HJ4uj/bfcJJPHmdquzNxI5Qs31EJAezzZoUruWSumYOMSMM+QbPIemIBgsN4S2mTV/D2D7d6DbgTyRUtEGGLaHLZcNHpThGDCVC3ViiUvJzwbO3fcO37rPDGzhdoO8Dt3EPZOunEvCFEBL0hblhc3heMwcfALdwwjVbGO3WeHL3gAlY744lN6+RBNdSSJo4kzLfBYzP0PC8RkP4V1Op+WQ0idsK0JklryqwIWBTOkHv9uLyP6LI7xHOsyfO4x2SxsXYf1Jdl286ic+NJk87gTGH9fmGvD+a6vceZ09cw3xbul1tz4WIlVPYEeIC1PZxP2QhnY78uB95BxeWhXk0np2mktPAkL4uQDn7VkVj9ftdbLhQn+R4UVn9C1VnC/gPsSBuCgsGg3ndCSFaT4K+uD2eT+MekcTFhKyGgRagZyDj9x9l/Au+OBmGjdp6TsAvMpCa3SkUmiW3e8Ada6DvAw/DlyUwwB4V9vT1HQ6FmrrWgYLda7nssI5HFo2jbw/9MiefcMYtmkr1jHWklXFbbPzfIvmSgnL+A0Ist6+3j0sneCdGx7LZo/C7zThd/H//1zZlEkLcMyToi9tkz+CwWeg2fNvogD6VvT12ZstsevaCQxqaHkNu08jyAgoSk1A9+jDm98K2D3hhSxRl55tT9rtNCfGf5HM80Is5gxvbdkscCZ43hRv/eI6Z/euXuv5Gvt5CCFMyZU/cNtuAsTgxk6K0ubhaeP/yic2k/n0XlbvTzd55uJVr1HAtAXQJY9m+uJEkFzVAox3id6WKlDRe/9mOjW8PafRyp47aniHA6YslMNhys/cjbk5tXUQhRCcnQV/cvh6B9J/pQtrOJCofNX1Ll72epImx2G3bwrOfuWNnOOKK4yJJmtHaFarpGQJVE9IJn+R+OyW/q2j/XUPxDS3PTIu2+P6LM6J5kd6G+e298fCCuNJKwCzoX6kiBxji3s594E02JKiwsW3f1QshWk6CvmgTA0Omkbk0igvqHibLL+emoeNpPMe7mzTx6ywOAGgud1xH+5N/JIuySe7cK/ezriFh3Aix8EbmfqyWVrH1szCj0fwuPBJgTcYPJeRP9TKZtleRWUJMLxfSvNu5vA/Y40cleRoIMGpU0f5cRjy2RFpq9hFCdCjp9BNtwzMQ17FJlH2012Sx6+8CUfEteYkaw8j761zOTuJyq5v29R6MWIZz7jySPkrhomEsge56Jefi5rNjRhT5t/nAoA6dstdMHk89xLJrhbzwyWmKb+iAGipyU3j98ypmRg697YGAt9S/P7PctayPqV0/UJHDhpiruD76W4Lu6EOATrNmSDe6dRvKmow7uV4hOhe50xdtxB2fF6ZSkBxlunjQNMbt0XJ0SQixLxSA5ziclq1k/CQvtEfCyFD/SEVGK6bP9fRn/K44Uj/bwOEx4ejyAE9/bB99jt8tn4pHj1vm0PnZeLNgjTUeX5zmiedzOHsDPPr2Yu68J5k51OgRvJxhRVgm5sMf9N0FeqHTx7Z8SpzKg8hl1fDpmbr1Y6Mi8omHSHtxsMm4hNSN0QR+Z/xhLYFhtd0YNmatGK1QnMepDCD4VcL8biMfIe5x3bKyshRnZ2dcXO7+ObDZ2dlIWYUQDaS+R7dH/szLceVsCr2TcyyF6FykeV8I0enlnT8FrouYEiwBX4imSPO+EKKT05KXFceQuad4vCWPNxCiC5KgL4To5Gx4fLXCqY4uhhCdgDTvCyGEEF2EBH0hhBCii5CgL4QQQnQREvSFEEKILkKCvhBCCNFFSNAXQgghuggJ+kIIIUQXIUFfCCGE6CIk6AshhBBdhAR9IYQQoouQoC9MnVzHdvU6sgGKYolVR3KkyDyRhiPT1WxXm/2NCOGbNXv5+dqdKqelst3NrnNyqb6udmwr6OjCNMN1slf5s13tT8KJ622XbV4ssT5qtr8US1O1kL1GzfbpsRQ3M9uCnZFsV/sQu/NO1m06iWo1sXGaO7jO21QUS6xaTeLJZqZv5v5qD8VH1vNNsL/+/OIzmti2Or+08PzRMcdWS+mPRf1+1Z+jLR2XEvRF681L4HmNpu5v8r5VOP0yj9SlSZR1dNnuSlmU7lSjGuZLTULKHT+BCtGZFO+eSdKMLJzeT2ayRkPEyTg8tJ+S+tx6znV04Tox+cEd0WasnXwZ9eJUCibGkvuncQSoO7pEdxfdyRQua57D+ys1ucFJFBRNxd2to0vVlB74zEvHZ14bZ+sZTnh2eBtnCu6TtvD8pDbPVrTT/mrS9RROLYzFbvV5xvjY65f1UDNs0SrKHx9LTsJUBobY37Hi3EvHltzpizal6m4DxFJZ2NElaUNlSXzjo2+Wv51m3J/TvoVJw+k77D9wUu+lNKuyDQt5r7nO9SsdXYZ7k+5aJbqOLsQt6LLTKdNMo+8o88DuS9//VFO190izu30sqaoouZ3idWpypy/alO6mFgjHvl/9shpNCkc/2EBxQhI6DTBoHE5vLmFUmBeWrtULktdx6oMoqk4WgNoL65Bp/G7+NHycbrX265z7LJK0LS547FrHaEMZdJW5pG3aQN6OKHR5gKc/di8uIOC/AnG18A2ozIji8JoNVCbm6tfv2wvVu+k8P8m9QdrLJzaT+snm+rST5jD0zXAebLBhBZQkZ2H9jC+uuHBxEuQkp1E2fhwNN6uSnJgVZG34lpqzGn15J7+Kz4wJPNjTNF32p0vI2hqFLk+Navxz9Fs8BVaNJt87geff8jek03Bkuo/ZsvrlJSHZhIfVN8tkr1GTscp4PQvw08zBx0KN68rSObzyU4oP7a2rW9tHn6P/n6bhZ9zSUxRLrN9Mqo0W2X5mut66cu42XsNMktQzGy1LcVwkSTP2Gr0/AY+MLYxupAWl+Mh6Ut/bXH9sWdpfRbHE+n2Ly8kPcdg9n6wNsejwwnrSAgIWTcD9Ns6alWdjOfreOsoScwF3VBHT8F40y7SuDHSVWRx9bwUXa783w6bi/NpMRoV4YWeUrlnfr5Pr2B68wiT/y8Fqthu9NtkfzdpfLd+u7DVqMkjg2Wd+5fDiFZQlF8CwqfRdsYQxfvaoasv264/Aw9haOEE49hsO7+VS+ukEXOu27Uc8ji6A6CUU7kxCp9GXwffdWXXnjYbHCuT7qck3eu28T8P4YY2lb/rYal4d1H7n0hnT91sOv72e6rOgGv8cnsuXENDPNM9mf79aIisrSykuLlY6Aynr3aJESXnZWdn2QZrJ0utXflQOzXpI2fb298qV2oVVh5W9//GQsmvrj8qVG/pF//vLt0p8kLPyj62/KjfNcs6LfknZ9tRyJf2iVrmpKMpNbYmS/tdgZdtTnypnjROmr1W2Ob+kpFysXVBhSDdP+WeBccJflUP/z1mJ/uv3yr+0teVMU77/f87KtiWHlX+brf9/T69Vop1fUg5kVSjXFUVRblQoZ7fOULY9NE/55xXTtP+KnaFse2iGcsiQ9qa2RDn9YYSy7am1SlaVWca/bFf+4fy48n2W/uWV7+Yp25zfVdK15nWrVU7/dZiybdZ25eyVJupV0So/fajf3uO52vqyRr+r/CPIfN9Y3l+1y3fFlpgXol76WmWb81oly9J72jTluyBnZdeWHxWNYTtuaiuUs7HzlOin3lVOX7H0oWauV1GUrA+clW0v71IuNZnKyMVdyi6TY8LU2b+HmRxbdfvWfH8Z8vnufw4b7YPDyndPOSvb/npY+V+TXNOU75xvvS2KoihXkuaZHC+KolX+lbRciX5ohpJSYJbYwvfmStZ2ZddDDynx31U0ma6p71f99jkr36XfssgGTe+vlmxX1gfOyrYlXyinU0sM9ahV8nbMULY5RyiHfjFL18hxdyn2JWWb8wzleG1x0tcq25wfV/7xF9PvTMqCYGXbU2uVnxp8xxQL549buMWx1fw6MNTlh98q6UbnmNMfBCvbHlqunDYua6u/X02T5n3ReqtCTEbv7wieR9kDqwh41+jutWcg4/cfZfwLvjgZ7pBsPSfgFxlIze4UTHoByvaS8UYBru8vYJhbD1SAqoeaYbM/I+CLl3mwsXLcLODIG2PJOfkEfl+vZLjJ1bI7YzadJ2TROPr20C+xdvJn1IxZ8Gky58wGpV9IXoHumafx9rHHGqC7PQMnT8Fes5mLaUbN8ddTyFycgv2nHzLGkFbVQ43fGytxd1hB1pdZJk2oxaeTqFE/javhFtXJdzi27KI023T9uuwvyPkokAf/eyoDnWrL68uYRXEMn29Ur0Xf8tN7BTgtWkrAgB71ZY2Yhut9jVVUG8v5J5ezJ+DypC/OhrpV9bBnYNhKJu9bgt8tW2buoLK95CysMDm26G7PwBdW8qDXCrK2ZZl94Cq2voFG+yCQMfNnwUfJ/NSqiQxZnHpvM3arV9YdL9CDvmMXMHRmLvl/Mx38eu7LJZQFrCLI6Hvj5DOVUfExjBlrdPvbku9Xu2jZdukNYOAINbaGtB6TFuD+aBLFR1oytFXLzZvGr91x+6Ppd2b0ornYn1zBuR/auxut5XWgc/JlmNE5xm/2Auw16yhMNTq42un7JUFftJ7Z6P3nTyTw7FvmTdCgsrc3aY4EsOnZCw5pqDJaVp2VRhXDTboGALB358HaE7W5a1kkRYaQn/40Plvm4GOpv6CnfYNuBFs7e+BXqs36jW9qLW8qgMrGpu5/XcYRyjRP4+rXwyyVO07+oEvLNepzrKQwdS9M8qd/7SK34Tg/quHyD+kmFweFp5PR+QzA0fwL7eZVd0ID4FIB1Qyn1wPm67fhN3dqfJP3f+DkuZfCT6LIKaykzGgqlcV91YH0x9a4uouuevbYuYMuPdesj7gXvzGr2saOmWbJ+5Gy7An09m24c+z7uMOXWdTPHiug5IcsVN7uDbp+XAfUB/dazf1+tYsWbZeBna0h4NfSH7M1mpaMl7Ghu3k3i/lB1/NhHJ+BquzzLci3FVpRB6qeNqYLethiDdRcMbpAaafvl/Tpi3Z3+cRmUv++i8rd6WbvPGzyqvLKrzTWj2dZGvmhEdi+uQD7i3PI2fQ0D77l3+AEWHV+L0c/2UxZcoq+z7POhAY5uvtPI/ujb8nJHoeTjz3WNys5tyOaymELGBZQHwUuX8wF9nJuwOZGpg8VUA70BahM4+KXAOHEfmqW7Mo/+fktfwbWllWTAg9MsTjWwdjlkrtgwl8Pf8bvP0La9s38NDeKk4fSAXdUz4zD9Y8LGDPC/q4J/rXHVqN2F1AK+j7i9lCmoQaaOFv/SEUR4AagofoQWEe4NCvr5n6/2kWLtqv5ens2/G6a8sLubpkd1E510F7fLwn6ol3psteTNDEWu21bePYzd+wMR5x+kIxpWvv7fguUUF0Jt4x6BrbvJjBxkjs1QzTsCX6JxAEHCH/G6GxQlkRSaCS6PyUzbnV9M1nt4B9zTuOXMnz5DNIeH8AOqBtI6Bc1DW+jOz/nvl6AF36aBRYHuBmrzjhCFbPwLlzCMOO7x+z1xDyeTEneLAZ66hfZqQNhbwmVNB2AnF3cgYpbrLn9qey9CHh1Jbyqf11zTUNewlpOTYzg8OEEggZ1bPlq6Y+tJppxQtxxbM8COKn1TbmNDpv3wqEuKKixfRTKNCVA05GtJd+vdtGi7Wo+598+TGPngvLCNJj0HL1bnm37aKc6gPb5fknzvmhXl3PT0PE0nuPrT0gAOgtfEFvf4diRZmG6XyXnThbor6ZNDMdllDvWgN2wOYz5LJDqhe9yxPjzeVlUaUz7xaB2lkFDusIULuQGMuy8ocsi+wiTVzecOaAaNBx7dRLF2RazMXEhfZd+qp55S7zPf+CkTjHpy+w3ZCyq7POUN+gIzSUnw2iqlacXdqRx9RfzDmYt/9egC7MHPZyAqmqT0dhQgvaXW5e/cZUUm5XTuqeagZOew4l0Kn+9e6Yk6o8tS/urkqoCUAV46Vtl2ovnwzj5WJ6mWXmpAF4abnQj6I7LY77ocgoa9gWfzyLHKIuWfL/aRYu2q/lUPv44qTdz8ah5vllc/B8NdhNGN7woNt/maz9SvhvsfAa0ogQt0E510F7fLwn6ol25/i4QFd+Sl6gxBJzrXM5O4rKlpkenCXgvd6D47RWcLLxODaC7XknOZzNJ+8Nmsm7x+M2+YSsZGJJC/ivryK5N+6Av9uq9lOzPosww8KeqMJ2MKy5m/Yp6P++eT1l3d9xu1dJgP46hy7wofns+R7Ir6y5IqgpTSJw+hYRDtV/IdC5u0WAd4Gvhzt2X3pOg5lBaXX+yymcqXtNT+PkvUZwru44OqLmWS+rCNzm56tv6gVlO4xi4yJ2y994l9by+rrhZybmYzRQ36HO2p//YafDpBo6erKxPu219sy5aLLtO/rY3SRozhcTkXC4brj101ys5t+0LLqvDcbXQx9kSVj19b+vzJoyPrSJ9verrYD4/5y7A94U2XJdFvgxdNI2qd+ZzuO54uc7F5BWc2uCFx2umUzcHRizAPnUeB7dl1dVt1fm9JLw+lqzdBXXxrUXfr1o927LbpWXb1Ww9Ahm6PNwkX911DSffm0dxjyV4N3gwTwFFf4/inCFI1pRlceS9tVQOW8DAxywchz0aGSPUKu1RB+33/ZLmfdG+Bk1j3B4tR5eEEPtCAXiOw2nZSsZP8kJ7JIwM9Y9UGM19HTg9FvtB60l9ZRQ5hrnUqrFT8Ds8C5+eTa8K7Bn+7peUPRdCxjvuOH4aTl/7cQTFb+DwspkkvKOfS2/75gbGT59Kj0V7yfBTc81obu6DzywgO3gKezaZb8c47GcuICjCt27MQN+wDYzvu5nUVRPYkZgLqFGNfgKn6UsY86j+C6nL/idlGl+chzSc4w898AyYRs6nR8gvC8fVSb8Nw5YnYx+3jlPPDiPNME/fNuRlAjaF42H0We83YtB1X0LW8/342WievlvyepO5x6Dvtgj4bAWn5oxix1mNYS73NPo+E9vgbrLhPH3IUK8gA6ifq9wDjxe24Dh8L6kbFpD0hmG8hKE7xOfArefps9uH7bVN0PPMnyEAA59ZQO7+N1s4T9907rXxvOu6Y+vl+mPLetIcAr4ObzD4tKWqZxhtixHjue1OY1cycVcsR9+rPV4Mc7kPbGg459ppHCH74zj+4RKShtXO05+A0x+PEBLmXh+wWvj9AsA+EO/VE0hr4Tz9xvZXi7arBVyf2cA4p/Wkvj2WHYb9ZRu5gIBdEyzM5HHH7YXhXP7bFE4ZzdP3i5pl0i1Xx+c5vGYkk9OiefqNH1ttXwct/H61QLesrCzF2dkZF5fmDRrpSNnZ2UhZRfspIG3pCsrGrmTcaNO7oeqiJJKefxMWHWXi2Dv3+M+Wa+xBPELco2ofztPEg3NEPWneF6JWRiznPtXS84GGzZ+2boG4BWioyuu6j+8UQnR+EvSFqOXuhR2m/f8A3LxOQfJacjf54+T/2w4rnhBC3C7p0xeiltMExh3dwtFPlpC4IUX/rGswPO/6aTwPxzB8kKUOQiGE6BykT7+ddKayCiGE6BqkeV8IIYToIiToCyGEEF2EBH0B6LsjSkpkZLoQQtzLJOgLIYQQXYQEfSGEEKKLkKAvhBBCdBES9IUQQoguQoK+EEII0UVI0BdCCCG6CAn6ohM7w4qwaFZkApQQMz+ayQkWph3qrnL2wH5emRaNVZj+b8C0OF6POU3+VV3D9PeqzP1Yhe0nFUBzjMlhccRoOrpQQog7SZ69L+5xVaR+sY/AtF7s/u9n2NjXDqihIu9H1q7KYcChMtL+NhY/q44upxBCtD8J+uLeduUM67/TMedPQQT3tTEstMbB059laxwJq+gnAV8I0WVI8764t12q5CDg2NOm4Xs9++PX1/qOF0kIITqK3OmLe5u7E6GUcjw3HwZ7NOsj2gsnWPdVPpuzdeQDAT4uLJsdSJDa6AIhcz9WS0vrX3t5UPgXFw5uPM3y1BrO3oBl705hwWAdGVt2MbzAg8vvjsDBeEW6XNa9nE7Oi8FsfNyxfvm1C8RvPcPalCpSteDhYMesmSOYM9zoFxs1x5g8I5/4ugW9Sdk5FLYe4+3v9Z8LnT6WHSHyK49CiHry07rtpDOVFTpfeZtPR37C/xC4ScsjE72Y+1g/BvVxxMHG8h2+NnM/TywtJ2hOIAtHumFDORmJR3ntqxpmffifRPRRNfhMcUIc/Q7bsfq3KvyeHUVQH7NWhZxkhi+qZO5nYUSozZdfY9mXzxDcy7Ds2hlWvJlJgo83O2c9jKuVjorcdBa/n09F6GNsDXFrWOjM/VgtrWFZhDUeg4cT4eXYMI0QQiDN++Kep8Ij5D/J+tCb4IoiFq/6Ad8pu7CasovXY85QYTJ4v5CYLaU4RoxgWaAbNipA5YhfyDiWjdTy4sZ0KhpbTa4Wj4ixDQM+gHd/ZvXREp9uPLNAR0ZqKRmB/QjqVb80//scFvfsx7bZQ3C1UgHWOHiNZPV0Rw5uSie+0QJcw8ZnrAR8IUSTJOiLLkCFg/sQIuc8w/7Pfk/hzjAuL3GDA5n4rjAK5JcK2VegIqhBN4AN3gNsILOMs43N8PPszRCHRt7Dg6AnrInfn2zbUTUAACAASURBVEt+7SLdWfZ9p2PBSG/qLxOKOJ5Sg99QFzzMGhRsPO15hCpO/9JYAXrxiFfDVgghhDAmffqi61HZ6O+eI8vY8EEBB6/4E3ofoKkiHh3x86N5p5GP5l2BALWFN6zAwj1+HY+RboRuLeLgRYjsC9r0AtbTm53+xp8qJz8PMvLSsfom3WI+ocWlgKUuGBVIzBdC3IIEfdFl2fS0BrRUXAPuA9R2hFJF6KdhRPRp45WpvYkYnM+GY/lETnLleGo5rk/5E2ASqB3x8ITQxx5jx0QLffdCCHGbpHlf3Nuu5rAl9gxaC29VXNEC1rjWNsv3cSHoPi0Hc8rboSCOBD1mx8G9F8jQ5rDvkIopo7zM0rgxxF9F/KnCxscOCCHEbZCgL+5p2rxCNkdl8sSqFFIvVukX6rRU5Kbw+udVBDw7qH7kPP2JnN2bnM+TWZFWhFYHoENbkUvMql28+E2+xYuH5nIY8VsWVJcS/Ukh69zdCDWP+cCgZ3xY9q8LvLgpk+Ibhv77G6VkJHzLM4tSOHvjNgrQUhUJzO7WjW7dphNXeuvkQoi7nzTvi3uazeAnSfkskw1fXGDxot0cvKpfPsi9F7P+NJatw10apP9++QnWfZWC7wr9PH0PBxuCn/Dm44ke9f325vP0yadfWN0wPctz5G0GEjTyDE8eqiL4xSFYfGpAz4dY8KEN8VvPMOkPZ0jVAjYqQn1dWDh3JINqnx7YYJ4+BIZF1794ajA3XnmombXUiJ9PEwu4LphCSO/by0oIcXeQefrtpDOVFTpfeUX7K44Jp8+UPD44fYq3/Dq6NEKItiB3+kIIi/Jy4iB4E2ES8IW4Z0ifvhDCgjx+SoWX/xiOZ0cXRQjRZuROXwhhgScv71d4uaOLIYRoU3KnL4QQQnQREvSFEEKILkKCvhBCCNFFSNAXQgghuggJ+kIIIUQXIUFfCCGE6CIk6AshhBBdhAR9IYQQoouQoC+EEEJ0ERL0hRBCiC5CHsMrOrEzrAjLhHensGBwCTHzk4kfY/6TtvrlL+Y2koWXB4UrR+J6J4rbTlI3RhP4S/O3I39PHIFbtDwSGciOif3uTPm+u1UqG7Z+FkaEut2L0z4y92O1tOrW25C5H6ulkBL3JAGaY0yeUUxoZ95u0elI0BddQ1v8vrxolYBXpnDjlfrXxQlx9Ntkpw98HVcsIbokCfpCdDEeE8MonNjRpRBCdATp0xeiU6uivLyjy9CJ5SYTGBaNVVg0KzJbn432ak3blUmIdiR3+kLU0uWybkY6a9UepCwbiYeqdnkRMYt+4B27/qQtGIGrqu4DVJxKYfHWEuILdBRbqQgO6Mfql0cwqJfKLPMa8lN+YPmWUrZUAFYqgv1cWPhKIAH31adtrOm7OCGOfoddDf32lsYp5NMvLN/odW+TPPT5ao3eb6oPvYbitBQWbyipL6ul7artk/50DJ7fHeaP32k5i4rgAA8+fn1Eff211NULxEedYW1KFalawEZF5BODWPbiYKO6r11/PvHG27xzKGw9xtvf6z8bOt14jIfZPrBREdwLgv78e1KGmhVWV0rqjlSWJ15l31Vw7WVNxOQhLBzfHwdVY3UKL86I5kWj18vencKCwa2sByHaQ1ZWllJcXKx0BlLW9tPZytt8xUr0vCil++fZzUtedFR5YXKU8sLei4YFN5XTX32tdJ+eqByvMk54U8nbG6vcPzlW2XyuTL+o5qJy4O87lfstpY2PVe6fnqAkFFXXpU348Gul+/Qk5fTN+pSX9sYq3UMTleNmxbq0N1bpPu+ocslCkY9/HtXoexaVHFUmhcYq0SWW3rypnI7eaVrWm2XK6R2xDbfLkM/yfaeU0+XX9cvKM5Tl06OU+z/MUKobWX1j26hXoGyeHaWM/vCUcqnGUDHlPylrZ0cp96891WieSkai0j10j7J8R6ISXbs/zNe7L1a5/w97brkPlJsXleiFUcr9Cw8btuumUl2UoSyfG6WM/jzbchkyEpXujdapEHcPad4XXcN3mVgZmnFN/jaeMU3XZyQb5zmSsymFFdlatJnJvLbXiq3LxhLQ0yidNpvNX2mJeONJIr0c9cus3AiaPoJlPUt5bYfRbXhFOsu33mDu3CcJ7mNTlzY4cgRZy0bh19o74vZQkc76nTrTsqoc8ZsUxMf3l/JarPk0iP/D9XdD8HOw1r90GMycyF4UHyrkuJZW6EfkyqfZM3sIrlaGinHwZmZEL4pTLt4iz2vY+IwlonZ/mCjh4A9aikd6mu6DUDeCrpRy8EJ9Sm16Ju/83IutCwMN26XCps9gFszth+N32WzI0bVmw4S4K0jzvugaWjB632ZoIH97ai+BHyVwGi2ef3iMiD5mkfmnIlbcsGO3j53Zp/vh/TvIyC4lHy88AO1Pl9mCLbv7muXRy4NBvVq9Re1CX9ZepHiZX4k40qcPZPxUSjFeRlMDf4ONjWlKm57WQBXFVwGz95qlZy8czBY1L89e/3979x8WVZ03fPxNIzpe8iCY4EjhDWuhPEKA4kpstJplgekGJntDZUu6PmlZmmlpG7neLZb5o+2X1e3qHSoUCvRoij8yNBThAgUCQyZdSBMHIhkJH0ZwrvP8MQMOwyCCCNp8Xtc11yXnfM73fM4M8jnne873O9zbJu9mjRjaPWFQ4dLSppHCvFp0/j4EDbAKu2MQ93KGIyerWODr0cFBCHFzkqIvRBtOhPzncObs1rLudg+KH277B16nawAMTP1LUjtt1KMDvAC9vhFwwvUmK/C2NOdKe7VTW08F3NB5DQyncln7WQVJZUZONFmu6egMQtV+3ngQNFoF35STMWW46Wq/qZKM9EpKfb0IH9YcV0P5T4BWi1tUO5M7nKsFpOiLW5MUfSHaqCXjPS3p3mrCf6pkcVoF26d7tYrQaPoD/cnaGk5IB93zLi59AQO1dcBNXvhNuRrBiO0C6u10Yycy0uezeOkpdI8Fk/X6cFyau/jNk990nYrAJ8LYXp3N7OfS0IHpAcEwL/YtHWdxTIPxvhO4M4Cm52VeB/HbI/f0hWjFSMWuTGYXO5O4PIqUpYOpTc5lRZFVwblLwxzHOo5oO76/q/7fbsTRwImz1rG1FBadaR07oA/QSINVV7SupomeYMrV1nHVcu4cBAYMxsvmlt3kx/Osa1ITOdHnSsEHMF7/fXSDVku6you8rbE0pcXSlPRnPp0zjpGtuvFVjAxwRpOvo1Bu3YvfICn6QljSHuCp9U3MXTqeCQNAHXA/70dAfMI3ZOgt4pzv4aWnHVmzJoNkbfNA+UYMZ4tYsWgb8bk1V2Jdgpk7XcWaNXvJOGs+eWiqISdxP1MSisi8aBEa4MEcxzrWJpeiN5ra1GuzWLOz/QqkVnfjk4CWuZ4zn3kYayncmskLPw3m/Wk+3bcvW7zdmONoIH2/tuX4DWePk6HvT8x1NVxDRkolFe6urYf92eASOpqVd1Qxb1U2hXrz+HtjPRV5e4mel0Gm3sZG/VUEXld+QvQM6d4X9mF3EY67bcy+Yjn3/sXjrHinCiKCWBDQ/ICemsC4MBLLDzD7nWyL8fsqvCL+RLEmi/iP9rL4tBEdMNLdidjoIJaOG2yxExWBMVPJuyuL+Ne3M9U89n3CiMFs/Wh861EBLsGsTGgk/v3v8J9e0DL2f85japLbmTwm8BEfFmSXdnKcPqRbjCm/Mp7cItfX0lpyDQ/xZN9q66viG8A5iJUJDcS/X4D/1nx0jipiHgvi05hgXP+9m+nPJlHRnGubcfoQFmXxjEWrhzcHE/7YYNb8PRfH1NxWu/RyceKZWcEsCTXfp1d5ELN8Et4pOcTP30ZGHebPy5U588OYYP2UIYCPH8tDs5gt4/TFTc6huLhYcXNzY8iQIR1H97KSkhIk1xvjVstXiE65qGVdwglc5j5CzB19LVY0otdmM/vVKia882fmDO+1DIXoEdK9L4T4zdNllfBCqRrvVgUfoC8uPp5MuN1IaWVdr+QmRE+Soi+E+M3T/MdAAqkl7WAlBsvHI5pqKNxaREKdmgkjbvKhFUJ0A7mnL4T47fMdz76/ZRGfnMXYj66M/9c4qwgP8CDx/XFMkO+0F3ZAir4Qwg6ocBk9nvdG93YeQvQu6d4XQggh7IQUfSGEEMJOSPe+AMDPz6+3UxBCCHGDyZW+EEIIYSek6AshhBB2Qoq+EEIIYSek6AshhBB2Qoq+EEIIYSek6AszHUnRDjg4tH79I6e38xJCCNFdpOgLMw2xKQqK0vzK5s3eTkkIIUS3kqIvhBBC2Akp+kIIIYSdkKIvhBBC2Akp+kIIIYSdkKIvhBBC2Akp+kIIIYSdkKIvhBBC2Akp+kIIIYSdkKIvhBBC2Akp+kIIIYSdkKIvrlMBq4MccHAYzerC3s5FCCHE1UjRF9dHV86xQiD8OaICezsZIYQQVyNFX1yfilKSgJl/nYZ3b+cihBDiqqToCzPrr9YN5W/XsFX5D8dA8xqx4S43PEMhhBDXp09vJyBuFqav1o3t1DYGyovTCHrpGA+ob1BaQgghuo0UfXEd1DywUuFYb6chhBDimkj3vhBCCGEnpOgLIYQQdkKKvhBCCGEnpOgLIYQQdkKKvhBCCGEnpOgLIYQQdkKKvhBCCGEnpOgLIYQQdkKKvhBCCGEnpOgLIYQQdkKKvmjt6Fo2u6+lBKAylVT3OA5V2gq8wMlda/kyPJjN7u6mV3gcO9Z/zekLPZty98lnT/Ox2HrNSkV3jW2kplVbLa/m0Kwry0tWu7N5df4NOIarKNqLY9RecgCqs4mOSiPZOk0AYxWZyV8x9S9JOEaZXv7PbmfFrlJ0xp5N+ebXiC7vAC/M/wLP5vdq/lesO1bTwXa1ZLxpfn9fzbb9e3Wtn5cQnSBz74suuETJ6hgKvw7D99PD+Hv2oy9w/oed5Lwyn293zWVsylxG3HK/XcE8XN38V7WaQ7P8qPDdxZMLg3s1qx5lrCQ5/gCL8WTHuw+y3UUNRgO6khzi3y5g7LGLFP8tGPlORRP9wd2M/WcDcQvC+CHUAzUGdNmZTH9zP/o3JrMkwMnmdobsw8wudmbBuDrW1vZw0sKu3XJ/lsVNoPpryt7OZ+DWdMZ49mtZPOjuyURsupuy8z63YMEXAJSWsLi0L8vfDSOwubKr1GgCxvPp6lOcGOAlBb/FGTL21qOZEszyMA/zMjWasAksz09jUvJ3xAWEorHe7OJxEj6tI3JuOFFlGVL0RY+SP82i8yq1NABOTv3arhvgw4gBPZ6R6Ca6n+rRcRtqW1+VPHQ4I3s8o5uZJzH/+DMxRpXVcjXed/aFrHoqwKroGyhMLmGFxoszf3SloqzHkhUCkKIvusLbHyfgwvenMY4ZhvWfvNby2eMeQf3HhwggiWPvbqPxRDWMeQLNsmVMGDew1fa6QxvI+2QDF/ZoAXdUDz+O52sLuHfkQBv7uUBp8gqK131latM7GKfo5/B7djJ3WZ141P+wk8MffMjPyfnAMFQxz+D72lwC3a/jfbio5dCqZZzZ+jXGalOb/m/8/joatGAoYHVEBC9n9mfhrmOsCu+Z62vN7wYSSBUFJ+uJcbfdNd2iaC+Of68n8Z0A2F5AQk4jJ5ogxG8I77w4npDbLT4xYx0nDuawZnMNG/WmRSF+Q1j+fBgT3Pu2bbuulI0fHmdNoalNLxcnnnlyFAseGI71+YjhVC5rP6tgQ4mRiqu1a6whJyWHNfvqSG/OYbgzsdFjmTN2SGfeJgsqbP0H0F9oBGdVm1zRHmbeLhWfvjsODVDRxb0K0WXFxcWKTqdTbgWS683jp9RnlU1uY5RtH3ylfK+tUn6pby8yT9nt5qYkRb6hHCzWK5cURVGa9MqJ1FeUJLdwZXeBoSVSf+ANZdOoZ6/EKQal/P++oiS5xSgH/23drkEpeHOMsmnuZuXEL6Yll375Tjk4d5SyadE+5ReLyF/z1yhJbuHKzq+rlP9nuf9RzypZp9vLu0rJmummbFqV1+76I3NHKZue/FD5/heDcllRlMuGKiX/g78oSW5uyrbUqvYavjYNx5RVEzQKeCsLd9VeX1ud8qty5JPPlT7RW5VF6ceUgp/OK7WNl22HFu5R+kR+rjz0zrdKQa3pE1Nqy5Sktz5X+szaoxQ0XAkt37ZV6TNrl7Kr0rzw8nnlyIatSp/oHco31r879YXK6zFblKdSypTay4qiKJeU2rJvlaeityjzDpxvFdpQuEe5L/Jz5fVvzyoNl03tFuzcodwXnaokVVrm3WA6rlcylYLa5hwalNqyw8q8WZ8ri3J+7trbZcvlMmXN01uU+z4rs1permx4sfXyI59sUfq8clg51317F+KqpOjfILdSrl2l//c+5eCy+coXkX9QNrm5KZt+H6Ns/+88pbpVlKnob0v50Wprg5K/xK1NgdbrDVZxPyoHH3dTvkhsvf3l4g+VJLf5ypFfrMLPlrWcBLRs/5+m7VuXLoNS8OYoZdMLXynWTZhcvehfzl+jbLJ1MmL4VtneHUW/V11SzhUeVtYkpCoPxW1R+kRuUe58OlVJ2H9SabAMK9yj9IlMVZIqrTavP6bMi7Qu0L8qtResTh4ajimLIrcoiw5btnpZKdjwudJnWY5ifapz7mTzSUCz08qGF7coU1LKrSIblG/e3WLVRpmyJmaLMn2njf+Tl9s5qemSy0p5ylalz6w9ypF6q+XbU5U+T+9RjlgcrhR90dNkyJ7osoHeD3L/G2uJTjvEk9VnePhf0yA1gj2Lv+a8dbDKuqOzH3cET4b/KcZyRODAgdbPCai5bSA0Vrceq3SmYD9Gv7txHWQV7uHDCMtlZ/L4eb8/g4Ksb0P0Q+M7FpK/w+aIxA78/ON3wFgGeVut6NcfG53Vt5i+aAJCWbAkir0bYmnaOpWs55w48kkuDyVq24Zbd28P8OBeH1hXZvnOOuHibBWo7osrUKG3HON5hoJ8I4Herm0eGNQM98HFsolzZ8g4rWJCgJdVpBrfu9VQdJ4TLUMMh3FvKKSn57Gx6Az6unqL/G30z1dnEx11Zcii6WUePtcuI/rsvTy17TYSl08kxPIWU3U+8ZsNLJgdSoit5yWE6CFyT190k364+U3jwVeLSZ2eivblBwnp9P3yC5SsX0FZ6tc0HD3depVv6x/rq7Pgd7EM7KjJ6tM0UEzDA+5sbidEXwl4tLOyvUzPFQP3dG6jW5XKCa+xk3jv8W3cva2Cwhk+BHa2jYunSE88zrrcejLrWq+KbB2I7hx4D+7wk4XqetIxkv5qEovbCSn/BfPvoZqQOY9SfDCPjzbnsuFsIzkG8HJRE/7QCJZHj2p9QuEeSkpaaCcOsJGKXbt5aDOsfPdPRA61bKyWjI2nyPT3oTi0g+ckhLjBpOiLbtXfaSCgpfFi57ct+ziGwpTfM+KzwwSYx/63jJe3inVyD4OdVVzA+uloK+7D6M9khhzdyH2enc+pPQOH+ndfY7cI9YDboMlIbRPg2Jkta8lYm0t0vQd5704i0KX5Uvc4K6KKKGgVOwDNUCivuQB08HCduxOR1BP5YRQxQ68hDZUzIx+YyHsPmH821qM79R0JCUVMQU1WzPDOHJSFegoTdzNl5202Cj5AI/pa0Gm1uEXZ6CmhAs+oCngkgKbZo7qYgxDXRrr3RacZLxTzbXI+9TbWna86DQyjv3W3u9FgteASZ/N3wl/8zRfZ1fycnw+TH2VsS8EHMMDltvvxDJqIquQHatvcR9BSWniBll5dT38GjdlJTXH3ThPo5jMWFXmcL7dacamBxm7dUw87m8u6g7ZueBjRVTWBc19crQu+9Sx9Fys5ooU5I5q7TyopPAaR9/taFHzTdg1t9uNJULCKwvJa9NaryksprLPY2dAhTLjdQGbptQx0N6KvtpolT+WExieU2FDIOWVjf9fCWEnG2zsZay74MW0KPsAQYt6KpSmt7SvrEcDHizNpsVLwRY+Qoi86reHk15x9MYIdS7dQeuaSuchd4ueSLWQu3oJq+ROMtuqdbUzewLclF0yxly9QlvYG2vXBuMWGYTo/cEcTEgw7vyKv8hJGwHjpAmX7fwT/tvcJVH5P4DMri5Ovb6HsvCm+8aKWnKXzOfr2V5xpifRh7JtLaFg8hz2HqluKTMP5Yg4tjSU1WdulIq3yexzv6d9xOv4jSs8351vN0fUbbJ4MdZqhgNUPDMXB4Xe8nNGlctQFRiqKzpLwzwNMXV/ACb35RM1YT0XWXubtMDInbrRV134TG7dkUag3v4t6LckfaFl3+2CeGedqjvEgcBykf1t6Jc5whpzsBoZa3bYBFYGRPswpO8ULW7Xom4xAI4byXF5IKCB+zxmL2OHEPT+Y0k/2syKvEoPRdAwGvZbkt7cx48sKmk81DeXZzJ631+q4DOi1WXy0H2KCPbsw6VAtGasOMPWYI4ntFvwepN/F8w4OODjMIq2jWYCF3ZLufdFpTmMWMK0kmMOrNlD4xAqOnqjGNKb+UTQfl/CH+9zbPNvV98lYPLRr+XKuxTj9HclMCLzy4N5ds5IxXFpGcaQnZeXAxLmMWLmMe33epubxCDaXruPB9dPM3fkDGZOwn4Fpazn22BjyzOP0+0fMJGT9NCwf7XIas4Ap6Ts5/MFfSI0yz3c/ZjIDp73E/TE+Fr0KpjkFfrZMfHsEm982/3uq5f7dCVmZxuVVyyi8fxlHW8bpP8egv+/snsLf41R4RfyJ4hH5rPvsFH+dW0qOuT6G+A3mpXceJXK4s9U2jsRFelC6cTtPWYzTz3prPIEtF/WuhD8/jsRPC3jq/2zjRBOM9PVg09LxxDmfJz1hP44/WXRtuwTx3sfOJP+rgLAn883j9NVEPj6OlIjWD+2pAyaxLyGXtZ9l4b/CNE7fdJ/el/emeLWMk1d7h5Hy36dI33KcF+aXtjxXMHKYM3NfntjFcfqmbnuaDMx47gtm2IiInDWRlIiuzgHQSScLSAU0S2KJGNwzuxS3Hofi4mLFzc2NIUN66BfzOpSUlCC53mqaJ+cpYVrU9cyEI246zZPzfBxFjHy0vU6XPI2hseWsKjjGwk4/aSnshVzpCyHEb0B5aRqErydKCr64CrmnL4QQt7xyvs+BmX+dhvXUEUJYkit9IYS45Xkzc6/CzN5OQ9z0pOiLG8zyO+rFb0rAJJrSejsJIURnSPe+EEIIYSek6AshhBB2Qoq+EEIIYSek6AshhBB2Qoq+EEIIYSek6AshhBB2Qoq+EEIIYSek6AshhBB2Qoq+EEIIYSek6IvWjq5ls/taSgAqU0l1j+NQpXVQPnvc3dnc3mtWKroOd2RqIzXNera+ag7NurK8ZLU7m1fnd8OBdULRXhyj9pIDUJ1NdFQayW0mFTzOiqgkHNt7vZp9De/BjVBF8qtJOH56vGd3W1fK2oVJeD6bQUZ1Y4fh+oPb8YxKwtHme9uskYpvviIsKonZX55Cb2wnzFhD5j+/ML/3V2sPdLvSrnw2lp+zEHZCpuEVXWA5tW41h2b5UeG7iycXBvdqVr2hR78v/Wb1SwHxr5ay0d2LrJWheKk6iL9YQMJH9cSEObM2q70ThHpObN3LQ8lNzP3boywZ7Ww7zFhJxqospp50JWsBhK2tv54jEeI3T670hRBdZ6xg43+ZC/7yayj41JOzUUuyvw9LH+jbbpQh+4Cp4L8x+aoFP/3NA6aCv3oiIe2ECSGukKIvhOgiIxVp+cw+p+a9F6+l4IOhJJtF3ziycnYwLu0FXSwg/p91eEXcw4IAp/bbOnuK9HODzQX/GnYuhJDufdEDLmo5tGoZZ7Z+jbF6GKqYZ/B/4/fd07ahgNUREbyc2Z+Fu46xKrzdUtK7jDXkpOSQsKeOjDrQOPclJjqIpQ8Px8W6Xl08RXricdZk1ZNjAC8XJ+bOGceCsUPatpmYzaJ9priRw1xZOs+nnQTqOfFNNmtSasmoNqIDRro7ERs9ijl/tJHDtTCUsGFbI+GPhxLpfg3xRi3r/lmDa0woMe7AOdthFftOsRZn9sb4or5Kc+phYSR+aASVFHwhrpUUfdHamAU82Xy73mMa06qnXWeD1eQsjqKibi5jvt2Iz6B+cKmawvWvcB5o28Hrzn3rrzyJ5bewGr/rzKDTLL8y1j2UlOv9+lhjJcnxB1iMJzvencR2FxWGcyWsXZXLlJ8M7Js96kpxu3icFfOL2OXny9bP7kHjaESvzSf+nf3M+Hk8iREe5kADhRv3E5Y7gJR/TCXS2wmMtRTuOMxiHfC71inodu3FP6Uv2/8xmU/vcAIaMZwtZe2aXGbXqkic5nXVAmuLPvdHVjQ5kRLayLr4L1hTYqTCUUV4iCcrZ45jZKurbyMVad+xmCHkRXldpVUt6V82EvjIKLzzM5i6sZaMuquc+HSy4GsiomiKMP8gXw0s7JB074sbynh0Cye33sOw5XPxHdQPFaDq586YWc/QfsdtJ6iDWPjNORTl371ylZ++fr/Np/dXFF2JMeQXsfikM4lLwwh06QuoUA8NYMlLnrjuLmFd6ZXH0iv2lRI/wJNNzwehcVQBfXHxCWXlLFcy1+eTrjcHVh8jYZeRJbMeNBV8AJUrgY/5ETPAOssajuQZINSb8Dua3/W+qO8IYMnKP5PShYIPRk4U14P3bZz49iKRrz/OD2mxNH0SRGRNBf4L91NosAg/l8viZCPLn/8DgVer0+dqOFIH99bVkDk0hO3/E0vT1iiy4hxJW7GfGburOp2pEOIKudIXN9TPP34HjGWQt9WKfv3pC3Q8uOvm1vHT+0YK82rR+fsQZF2M7xjEvZzhyMkqFvh6AJUcyWokcPSQNvfH1d4DuZcKCv5tJHK0Cs7Vk46aRG/rct0f9f+yzmEwQaPVaDaXssJ3AHEBg3AZ4IxaRTtXylUkv7qfGdrWS5e/EcuSgOafaij/CfilP+HRQWiam3HxIW5RLUeeOcWG3Fre+6MrUEX6BxUcCfMlMaCD04vqetKBOH8/4nxcTctUajRh85mqawAABCRJREFUk3j/5DbGfl7CS48MIfDqrQgh2iFFX9xQF84VA/f0dhq9yFwctVrcorS2Q87VAh5ALRXlUFiej+OXtucmiNTVAEPQVxtsrm+P15RHydPksmZHPjP+1UhmHWicVYSP8+KlGeMY2eqEZAgxb8UScy0NB2vaXrm7eDLB+xQzyip574+u6LPyeOGkE58uCrrGHgU1E3xdrZapCAxwhh0XKK2GwGt5hkAI0YYUfXFDDRzq39sp9LLBeN8J3BlA0/OjOoh1xcsbIsePJ2WKx1UjXdzVQGfGpPdFMzaMlWPNPxoN6HVlrHvrOA990JfiV4Laf5repoFoOpieIFDtCIDh10Z0TQamPpNkM27Gs0nMYDBZaZMIce3PhKseVx9cOn8vQghhJvf0xQ3l5jMWFXmcL7dacanhlu/avzYqRgY4o8nXUdjejHItPAgKVpF+7Az6jkL/YyBxGCgtt77ib8Dwa9twQ3UVrSJValzuCCAuXI2u9DwVHe2vDTVBwe0cl/4MmeUQPmIYYH54Li227euNwYCaxI9jaUqbRAjAMA8ibzeQWVpr1aiRwqI6GOaKr4zHF6LLpOiLG0rl9zje07/jdPxHlJ6/hBEwXqrm6PoNnbpObZehgNUPDMXB4Xe8nNFhqewVLqGjWXlHFfNWZVOoN5/qGOupyNtL9LwMMi3SHjnVj+U/nWLG+iJ0TeZq2lRD4a6vmPpaFieamhsNYG6EihXrvya93PxOGmsp/LKE5ItWCeiLiH9tPw+9nUXO2eZ3vRHD2QI+SjcQcp8HI6/nuD4ouJKrXsvGd06R4TucueO6ckk+nLjnB1P6SSYbtebCbzSgy9rLvB2wfNZYrvbsf3fT73geBwcHHJ5J6/hETIhbgHTviy7IZ497BD9bLtoewea3zf+euo4H109DA4A7ISvTuLxqGYX3L+Noyzj95xj0953dU/hvdioPYpZPwjslh/j528ioAxxVTBjhypz5YUyw7FcfMIol76pJTzzO9KePk2MA1Coi/Yew9KVQRjo2B6oJjJtIliqbRa9tJ7plnL4vcTm5ZFru3yWAlR9ryEzJY83r21tGAHi5OPHMk+PY8cfhXXh6v/m4JqJJzGX606XkGEzzD0Q+HEBx9KhO3i64Qh0wkR0JuSS8vxfP06Y5BUL8BvPSO5OJHG6Z6XFWRBURb7W96XaByfVOk1xekgpoeO2piC4fjxA3E4fi4mLFzc2NIUNu/vnDS0pKkFyFED1DR1L0UJ74YRXHChYS1NvpCNEN5EpfCCFsKuf7rRCxIUoKvvjNkHv6Qghhy8nvOcJMZk6xnmRCiFuXXOkLIYQtd81kvzKzt7MQolvJlb4QQghhJ6ToCyGEEHZCir4QQghhJ6ToCyGEEHZCir4QQghhJ6ToCyGEEHZCir4QQghhJ/4/HHHeRDtmMaEAAAAASUVORK5CYII=&quot;&gt;" style="whiteSpace=wrap;html=1;" vertex="1" parent="WIyWlLk6GJQsqaUBKTNV-1">
          <mxGeometry x="350" y="150" width="620" height="470" as="geometry" />
        </mxCell>
      </root>
    </mxGraphModel>
  </diagram>
</mxfile>
